<svg width="40" height="49" viewBox="0 0 40 49" fill="none" xmlns="http://www.w3.org/2000/svg">
<path d="M21.1499 5.44057C21.1499 4.9808 21.533 4.59766 21.9928 4.59766C22.4526 4.59766 22.8357 4.9808 22.8357 5.44057C22.8357 5.90034 22.4526 6.28348 21.9928 6.28348C21.533 6.28348 21.1499 5.90034 21.1499 5.44057Z" fill="#9FE8FF"/>
<path d="M26.7432 5.44057C26.7432 4.9808 27.1263 4.59766 27.5861 4.59766C28.0458 4.59766 28.429 4.9808 28.429 5.44057C28.429 5.90034 28.0458 6.28348 27.5861 6.28348C27.1263 6.28348 26.7432 5.90034 26.7432 5.44057Z" fill="#9FE8FF"/>
<path d="M32.3374 5.44057C32.3374 4.9808 32.7205 4.59766 33.1803 4.59766C33.6401 4.59766 34.0232 4.9808 34.0232 5.44057C34.0232 5.90034 33.6401 6.28348 33.1803 6.28348C32.7205 6.28348 32.3374 5.90034 32.3374 5.44057Z" fill="#9FE8FF"/>
<path d="M19.9234 15.7854C25.6705 15.7854 30.4215 20.4597 30.4215 26.2835C30.4215 32.1072 25.7471 36.7816 19.9234 36.7816C14.0996 36.7816 9.42529 32.1072 9.42529 26.2835C9.42529 20.4597 14.1762 15.7854 19.9234 15.7854Z" fill="#9FE8FF"/>
<path d="M19.9234 19.3103C23.7548 19.3103 26.8966 22.4521 26.8966 26.2835C26.8966 30.1149 23.7548 33.2567 19.9234 33.2567C16.092 33.2567 12.9502 30.1149 12.9502 26.2835C12.9502 22.4521 16.092 19.3103 19.9234 19.3103Z" fill="white"/>
<path d="M5.82373 6.51336V4.36777C5.82373 4.29114 5.90036 4.29114 5.90036 4.29114H16.3218C16.3984 4.29114 16.3984 4.36777 16.3984 4.36777V6.43673C16.3984 6.51336 16.3218 6.51336 16.3218 6.51336H5.97699C5.90036 6.58999 5.82373 6.51336 5.82373 6.51336Z" fill="#9FE8FF"/>
<path d="M35.2493 44.3678H27.9696C27.8164 44.3678 27.7397 44.2912 27.7397 44.138V40C27.7397 39.8468 27.8164 39.7701 27.9696 39.7701H35.2493C35.4026 39.7701 35.4792 39.8468 35.4792 40V44.138C35.4792 44.2912 35.4026 44.3678 35.2493 44.3678Z" fill="#9FE8FF"/>
<path d="M19.9233 38.1609C26.5133 38.1609 31.8007 32.7969 31.8007 26.2835C31.8007 19.7701 26.4367 14.4061 19.9233 14.4061C13.4099 14.4061 8.0459 19.7701 8.0459 26.2835C8.0459 32.7969 13.4099 38.1609 19.9233 38.1609ZM19.9233 15.7854C25.6704 15.7854 30.4214 20.4598 30.4214 26.2835C30.4214 32.1073 25.747 36.7816 19.9233 36.7816C14.0995 36.7816 9.42521 32.1073 9.42521 26.2835C9.42521 20.4598 14.1762 15.7854 19.9233 15.7854Z" fill="#18337F"/>
<path d="M19.9233 34.636C24.521 34.636 28.2758 30.8812 28.2758 26.2835C28.2758 21.6858 24.521 17.931 19.9233 17.931C15.3256 17.931 11.5708 21.6858 11.5708 26.2835C11.5708 30.8812 15.3256 34.636 19.9233 34.636ZM19.9233 19.3103C23.7547 19.3103 26.8965 22.4521 26.8965 26.2835C26.8965 30.1149 23.7547 33.2567 19.9233 33.2567C16.0919 33.2567 12.9501 30.1149 12.9501 26.2835C12.9501 22.4521 16.0919 19.3103 19.9233 19.3103Z" fill="#18337F"/>
<path d="M35.0957 38.3907H28.1992C27.203 38.3907 26.3601 39.2337 26.3601 40.2298V43.9846C26.3601 44.9808 27.203 45.8237 28.1992 45.8237H34.5593C34.9425 45.8237 35.249 45.5172 35.249 45.134C35.249 44.7509 34.9425 44.4444 34.5593 44.4444H28.1992C27.9693 44.4444 27.816 44.2911 27.816 44.0612V40.3065C27.816 40.0766 27.9693 39.9233 28.1992 39.9233H35.0957C35.3256 39.9233 35.4789 40.0766 35.4789 40.3065V44.0612C35.4789 44.2911 35.3256 44.4444 35.0957 44.4444H33.3333C32.9501 44.4444 32.6436 44.7509 32.6436 45.134C32.6436 45.5172 32.9501 45.8237 33.3333 45.8237H35.0957C36.0919 45.8237 36.9348 44.9808 36.9348 43.9846V40.2298C36.9348 39.157 36.0919 38.3907 35.0957 38.3907Z" fill="#18337F"/>
<path d="M37.5479 0H2.37548C1.0728 0 0 1.0728 0 2.37548V9.80843C0 10.1916 0.306513 10.4981 0.689655 10.4981C1.0728 10.4981 1.37931 10.1916 1.37931 9.80843V2.29885C1.37931 1.76245 1.76245 1.37931 2.29885 1.37931H37.4713C38.0077 1.37931 38.3908 1.76245 38.3908 2.29885V9.42529H1.45594V7.81609C1.45594 7.43295 1.14943 7.12644 0.766284 7.12644C0.383142 7.12644 0.0766279 7.43295 0.0766279 7.81609V46.4368C0.0766279 47.7395 1.14943 48.8123 2.45211 48.8123H37.6245C38.9272 48.8123 40 47.7395 40 46.4368V2.29885C39.9234 0.996169 38.8506 0 37.5479 0ZM38.4674 46.4368C38.4674 46.9732 38.0843 47.3563 37.5479 47.3563H2.37548C1.83908 47.3563 1.45594 46.9732 1.45594 46.4368V10.8812H38.4674V46.4368Z" fill="#18337F"/>
<path d="M16.3986 8.04593C17.2415 8.04593 17.9312 7.35628 17.9312 6.51337V4.36777C17.9312 3.52486 17.2415 2.83521 16.3986 2.83521H5.97715C5.13424 2.83521 4.44458 3.52486 4.44458 4.36777V6.43674C4.44458 7.27965 5.13424 7.96931 5.97715 7.96931L16.3986 8.04593ZM5.82389 6.51337V4.36777C5.82389 4.29114 5.90052 4.29114 5.90052 4.29114H16.322C16.3986 4.29114 16.3986 4.36777 16.3986 4.36777V6.43674C16.3986 6.51337 16.322 6.51337 16.322 6.51337H5.97715C5.90052 6.58999 5.82389 6.51337 5.82389 6.51337Z" fill="#18337F"/>
<path d="M24.2911 5.44057C24.2911 4.21452 23.2949 3.14172 21.9922 3.14172C20.7662 3.14172 19.6934 4.13789 19.6934 5.44057C19.6934 6.74326 20.6895 7.73942 21.9922 7.73942C23.2183 7.73942 24.2911 6.66663 24.2911 5.44057ZM21.1493 5.44057C21.1493 4.9808 21.5324 4.59766 21.9922 4.59766C22.452 4.59766 22.8351 4.9808 22.8351 5.44057C22.8351 5.90034 22.452 6.28349 21.9922 6.28349C21.5324 6.28349 21.1493 5.90034 21.1493 5.44057Z" fill="#18337F"/>
<path d="M29.8851 5.44057C29.8851 4.21452 28.8889 3.14172 27.5862 3.14172C26.3601 3.14172 25.2874 4.13789 25.2874 5.44057C25.2874 6.74326 26.2835 7.73942 27.5862 7.73942C28.8889 7.73942 29.8851 6.66663 29.8851 5.44057ZM26.7433 5.44057C26.7433 4.9808 27.1264 4.59766 27.5862 4.59766C28.046 4.59766 28.4291 4.9808 28.4291 5.44057C28.4291 5.90034 28.046 6.28349 27.5862 6.28349C27.1264 6.28349 26.7433 5.90034 26.7433 5.44057Z" fill="#18337F"/>
<path d="M35.4791 5.44057C35.4791 4.21452 34.4829 3.14172 33.1802 3.14172C31.9541 3.14172 30.8813 4.13789 30.8813 5.44057C30.8813 6.74326 31.8775 7.73942 33.1802 7.73942C34.4829 7.73942 35.4791 6.66663 35.4791 5.44057ZM32.3373 5.44057C32.3373 4.9808 32.7204 4.59766 33.1802 4.59766C33.64 4.59766 34.0231 4.9808 34.0231 5.44057C34.0231 5.90034 33.64 6.28349 33.1802 6.28349C32.7204 6.28349 32.3373 5.90034 32.3373 5.44057Z" fill="#18337F"/>
</svg>
