<svg width="53" height="60" viewBox="0 0 53 60" fill="none" xmlns="http://www.w3.org/2000/svg">
<g clip-path="url(#clip0)">
<path d="M23.5753 36.3906C18.9666 31.7752 11.5218 31.7752 7.00169 36.3906C2.39299 41.0059 2.39299 48.4616 7.00169 52.9882C9.30604 55.2959 12.3194 56.4497 15.3328 56.4497C18.3462 56.4497 21.3595 55.2959 23.6639 52.9882C28.184 48.4616 28.184 41.0059 23.5753 36.3906ZM22.689 52.1006C18.6121 56.1835 11.9649 56.1835 7.88797 52.1006C3.81105 48.0178 3.81105 41.361 7.88797 37.2781C11.9649 33.1953 18.6121 33.1953 22.689 37.2781C26.7659 41.361 26.7659 48.0178 22.689 52.1006Z" fill="#18337F"/>
<path d="M22.689 52.1006C18.6121 56.1835 11.9649 56.1835 7.88801 52.1006C3.81109 48.0178 3.81109 41.361 7.88801 37.2781C11.9649 33.1953 18.6121 33.1953 22.689 37.2781C26.7659 41.361 26.7659 48.0178 22.689 52.1006Z" fill="#9FE8FF"/>
<path d="M6.64723 13.0473L11.0787 8.60947C11.2559 8.43196 11.5218 8.3432 11.7877 8.3432C12.0536 8.3432 12.3195 8.43196 12.4967 8.60947L14.9783 11.0947L9.12884 16.9527L6.64723 14.4675C6.29272 14.0237 6.29272 13.4024 6.64723 13.0473Z" fill="#9FE8FF"/>
<path d="M8.33108 28.2249C8.15382 28.0474 7.97656 27.6923 7.97656 27.4261C7.97656 27.071 8.06519 26.8048 8.33108 26.6272L9.04011 25.9172L19.0552 15.8876L24.6388 10.2959C24.9047 10.0296 25.1705 9.94086 25.4364 9.94086C25.7023 9.94086 26.0568 10.0296 26.2341 10.2959L28.893 12.9586C29.3361 13.4024 29.3361 14.2012 28.893 14.645L24.6388 18.9054L16.9281 26.6272L14.0033 29.5562C12.6739 29.645 11.4331 29.9113 10.1923 30.3551L8.33108 28.2249Z" fill="#9FE8FF"/>
<path d="M33.4131 51.6568C32.9699 52.1006 32.1723 52.1006 31.7291 51.6568L29.7793 49.7042C30.2224 48.5503 30.4883 47.3077 30.577 45.9763L33.5017 43.0473L38.199 38.3432L45.378 31.1539C45.8211 30.7101 46.6188 30.7101 47.0619 31.1539L49.7208 33.8166C50.1639 34.2604 50.1639 35.0592 49.7208 35.503L49.0117 36.213L34.1221 50.9468L33.4131 51.6568Z" fill="#9FE8FF"/>
<path d="M51.4046 48.9054L46.9732 53.3432C46.6186 53.6983 45.9096 53.6983 45.5551 53.3432L43.0735 50.858L48.923 45L51.4046 47.4852C51.5819 47.6628 51.6705 47.929 51.6705 48.1953C51.6705 48.4616 51.5819 48.7278 51.4046 48.9054Z" fill="#9FE8FF"/>
<path d="M52.291 46.5976L49.5435 43.8462L51.4047 41.9823C51.8478 41.5385 52.1137 40.9172 52.1137 40.2071C52.1137 39.5858 51.8478 38.9645 51.4047 38.432L49.8094 36.8343L50.5184 36.1243C51.4933 35.1479 51.4933 33.6391 50.5184 32.6627L47.8595 30C46.9732 29.1124 45.2893 29.1124 44.403 30L40.1488 34.2604L25.6137 19.7042L29.8679 15.4438C30.8428 14.4675 30.8428 12.9586 29.8679 11.9823L27.209 9.31954C26.3227 8.43196 24.6388 8.43196 23.7525 9.31954L23.0435 10.1184L21.4482 8.52072C20.4732 7.54439 18.9666 7.54439 17.9916 8.52072L16.1304 10.3846L13.3829 7.63315C12.4967 6.74557 11.0786 6.74557 10.1923 7.63315L5.76087 12.071C5.31773 12.5148 5.05184 13.0473 5.05184 13.6687C5.05184 14.29 5.31773 14.8225 5.76087 15.2663L8.50836 18.0178L6.64716 19.8817C6.20401 20.3255 5.93813 20.9468 5.93813 21.6568C5.93813 22.3669 6.20401 22.8994 6.64716 23.432L8.24248 25.0296L7.53344 25.7397C7.0903 26.1834 6.82441 26.8047 6.82441 27.5148C6.82441 28.1361 7.0903 28.7574 7.53344 29.29L9.12876 30.8876C7.44482 31.5976 5.93813 32.6627 4.6087 33.9941C1.59532 36.7456 0 40.6509 0 44.7337C0 48.8166 1.59532 52.6331 4.52007 55.5621C7.44482 58.4911 11.2559 60.0888 15.3328 60.0888C19.4097 60.0888 23.2207 58.4911 26.1455 55.5621C27.4749 54.2308 28.5385 52.6331 29.2475 51.0355L30.8428 52.6331C31.286 53.0769 31.995 53.3432 32.6154 53.3432C33.2358 53.3432 33.8562 53.0769 34.388 52.6331L35.097 51.9231L36.6923 53.5207C37.1355 53.9645 37.8445 54.2308 38.4649 54.2308C39.0853 54.2308 39.7057 53.9645 40.2375 53.5207L42.0987 51.6568L44.8462 54.4083C45.2893 54.8521 45.9097 55.1184 46.4415 55.1184C46.9732 55.1184 47.5936 54.8521 48.0368 54.4083L52.4682 49.9704C52.9114 49.5266 53.1773 48.9941 53.1773 48.3728C53 47.574 52.7341 47.0414 52.291 46.5976ZM6.64716 13.0473L11.0786 8.60948C11.2559 8.43196 11.5217 8.34321 11.7876 8.34321C12.0535 8.34321 12.3194 8.43196 12.4967 8.60948L14.9783 11.0947L9.12876 16.9527L6.64716 14.4675C6.29264 14.0237 6.29264 13.4024 6.64716 13.0473ZM7.17893 21.6568C7.17893 21.3018 7.26756 21.0355 7.53344 20.858L18.8779 9.49705C19.1438 9.23078 19.4097 9.14202 19.6756 9.14202C19.9415 9.14202 20.296 9.23078 20.4732 9.49705L22.0686 11.0947L9.04013 24.0533L7.44482 22.4556C7.26756 22.2781 7.17893 22.0118 7.17893 21.6568ZM30.5769 44.1124C30.4883 42.3373 30.1338 40.5621 29.5134 38.9645L32.6154 42.071L30.5769 44.1124ZM33.5017 41.1834L18.8779 26.5385L24.7274 20.6805L39.3512 35.3255L33.5017 41.1834ZM21.005 30.5326C19.4097 29.9113 17.7258 29.5562 15.9532 29.4675L17.9916 27.426L21.005 30.5326ZM8.3311 28.2249C8.15385 28.0473 7.97659 27.6923 7.97659 27.426C7.97659 27.071 8.06522 26.8047 8.3311 26.6272L9.04013 25.9172L19.0552 15.8876L24.6388 10.2959C24.9047 10.0296 25.1706 9.94084 25.4365 9.94084C25.7023 9.94084 26.0569 10.0296 26.2341 10.2959L28.893 12.9586C29.3361 13.4024 29.3361 14.2012 28.893 14.645L24.6388 18.9053L16.9281 26.6272L14.0033 29.5562C12.6739 29.645 11.4331 29.9113 10.1923 30.355L8.3311 28.2249ZM25.1706 54.5858C22.5117 57.2485 18.9666 58.6687 15.2441 58.6687C11.5217 58.6687 7.97659 57.2485 5.31773 54.5858C2.65886 51.9231 1.2408 48.3728 1.2408 44.645C1.2408 40.9172 2.65886 37.3669 5.31773 34.7042C7.97659 32.0414 11.5217 30.6213 15.2441 30.6213C18.9666 30.6213 22.5117 32.0414 25.1706 34.7042C27.8294 37.3669 29.2475 40.9172 29.2475 44.645C29.3361 48.4615 27.8294 52.0118 25.1706 54.5858ZM33.413 51.6568C32.9699 52.1006 32.1722 52.1006 31.7291 51.6568L29.7793 49.7042C30.2224 48.5503 30.4883 47.3077 30.5769 45.9763L33.5017 43.0474L38.199 38.3432L45.3779 31.1539C45.8211 30.7101 46.6187 30.7101 47.0619 31.1539L49.7207 33.8166C50.1639 34.2604 50.1639 35.0592 49.7207 35.503L49.0117 36.213L34.1221 50.9468L33.413 51.6568ZM39.1739 52.5444C38.7308 52.9882 37.9331 52.9882 37.49 52.5444L35.8946 50.9468L48.9231 37.8994L50.5184 39.4971C50.7843 39.7633 50.8729 40.0296 50.8729 40.2959C50.8729 40.6509 50.7843 40.9172 50.5184 41.0947L39.1739 52.5444ZM51.4047 48.9053L46.9732 53.3432C46.6187 53.6982 45.9097 53.6982 45.5552 53.3432L43.0736 50.858L48.9231 45L51.4047 47.4852C51.5819 47.6627 51.6706 47.929 51.6706 48.1953C51.6706 48.4615 51.5819 48.7278 51.4047 48.9053Z" fill="#18337F"/>
<path d="M10.8126 40.2071C9.66045 41.361 8.95142 42.9586 8.95142 44.645C8.95142 46.3314 9.57182 47.929 10.8126 49.0829C12.0534 50.3255 13.6487 50.9468 15.2441 50.9468C16.8394 50.9468 18.4347 50.3255 19.6755 49.0829C22.1571 46.5976 22.1571 42.6036 19.6755 40.1184C17.2825 37.8107 13.2942 37.8107 10.8126 40.2071ZM18.8778 48.284C16.928 50.2367 13.7374 50.2367 11.7875 48.284C10.8126 47.3077 10.2808 46.0651 10.2808 44.7337C10.2808 43.4024 10.8126 42.1598 11.7875 41.1835C12.7625 40.2071 14.0919 39.6746 15.3327 39.6746C16.6621 39.6746 17.9029 40.2071 18.8778 41.1835C20.8277 43.1361 20.8277 46.3314 18.8778 48.284Z" fill="#18337F"/>
<path d="M23.5753 36.3906C18.9666 31.7752 11.5218 31.7752 7.00169 36.3906C2.39299 41.0059 2.39299 48.4616 7.00169 52.9882C9.30604 55.2959 12.3194 56.4497 15.3328 56.4497C18.3462 56.4497 21.3595 55.2959 23.6639 52.9882C28.184 48.4616 28.184 41.0059 23.5753 36.3906ZM22.689 52.1006C18.6121 56.1835 11.9649 56.1835 7.88797 52.1006C3.81105 48.0178 3.81105 41.361 7.88797 37.2781C11.9649 33.1953 18.6121 33.1953 22.689 37.2781C26.7659 41.361 26.7659 48.0178 22.689 52.1006Z" fill="#18337F"/>
<path d="M10.8126 40.2071C9.66045 41.361 8.95142 42.9586 8.95142 44.645C8.95142 46.3314 9.57182 47.929 10.8126 49.0829C12.0534 50.3255 13.6487 50.9468 15.2441 50.9468C16.8394 50.9468 18.4347 50.3255 19.6755 49.0829C22.1571 46.5976 22.1571 42.6036 19.6755 40.1184C17.2825 37.8107 13.2942 37.8107 10.8126 40.2071ZM18.8778 48.284C16.928 50.2367 13.7374 50.2367 11.7875 48.284C10.8126 47.3077 10.2808 46.0651 10.2808 44.7337C10.2808 43.4024 10.8126 42.1598 11.7875 41.1835C12.7625 40.2071 14.0919 39.6746 15.3327 39.6746C16.6621 39.6746 17.9029 40.2071 18.8778 41.1835C20.8277 43.1361 20.8277 46.3314 18.8778 48.284Z" fill="#18337F"/>
<path d="M18.878 48.284C16.9282 50.2367 13.7375 50.2367 11.7877 48.284C10.8128 47.3077 10.281 46.0651 10.281 44.7337C10.281 43.4024 10.8128 42.1598 11.7877 41.1834C12.7626 40.2071 14.092 39.6746 15.3328 39.6746C16.6623 39.6746 17.9031 40.2071 18.878 41.1834C20.8278 43.1361 20.8278 46.3314 18.878 48.284Z" fill="white"/>
</g>
<defs>
<clipPath id="clip0">
<rect width="53" height="60" fill="white"/>
</clipPath>
</defs>
</svg>
