<svg width="45" height="52" viewBox="0 0 45 52" fill="none" xmlns="http://www.w3.org/2000/svg">
<path d="M22.4854 2.03174C25.2266 2.03174 30.5609 3.06897 30.5609 5.36568C30.5609 7.6624 27.5974 11.2186 26.1898 12.6263H18.8551C17.4474 11.2186 14.4839 7.6624 14.4839 5.36568C14.4098 3.06897 19.7441 2.03174 22.4854 2.03174Z" fill="#9FE8FF"/>
<path d="M25.8193 46.6326C25.8193 48.4848 24.3375 49.9665 22.4853 49.9665C20.6331 49.9665 19.1514 48.4848 19.1514 46.6326V33.1486C19.1514 31.2964 20.6331 29.8147 22.4853 29.8147C24.3375 29.8147 25.8193 31.2964 25.8193 33.1486V46.6326Z" fill="#9FE8FF"/>
<path d="M18.5587 16.553C18.1883 16.553 17.8919 16.8493 17.8919 17.2198V18.5533L14.1134 16.6271C13.8171 16.4789 13.3726 16.6271 13.2244 16.9234C13.0762 17.2198 13.2244 17.6643 13.5207 17.8125L18.2623 20.1833C18.3364 20.2574 18.4846 20.2574 18.5587 20.2574C18.7069 20.2574 18.781 20.2574 18.9291 20.1833C19.1514 20.0351 19.2255 19.8128 19.2255 19.5906V17.2198C19.2255 16.8493 18.9291 16.553 18.5587 16.553Z" fill="#18337F"/>
<path d="M27.1529 17.2198C27.1529 16.8493 26.8566 16.553 26.4861 16.553C26.1157 16.553 25.8193 16.8493 25.8193 17.2198V19.5906C25.8193 19.8128 25.9675 20.0351 26.1157 20.1833C26.1898 20.2574 26.338 20.2574 26.4861 20.2574C26.5602 20.2574 26.7084 20.2574 26.7825 20.1833L31.5241 17.8125C31.8204 17.6643 31.9686 17.2198 31.8204 16.9234C31.6723 16.6271 31.2277 16.4789 30.9314 16.6271L27.1529 18.5533V17.2198Z" fill="#18337F"/>
<path d="M43.8226 1.43912C43.5263 0.994593 43.0818 0.698242 42.5632 0.698242H36.8584C36.0434 0.698242 35.3767 1.36503 35.3767 2.17999V4.99532L31.3018 7.66248C31.6723 6.84751 31.8945 6.10664 31.8945 5.36576C31.8945 1.58729 24.9303 0.698242 22.4854 0.698242C20.0405 0.698242 13.0763 1.51321 13.0763 5.36576C13.0763 6.10664 13.2985 6.84751 13.669 7.66248L9.66825 4.99532V2.17999C9.66825 1.36503 9.00146 0.698242 8.1865 0.698242H2.48175C1.96314 0.698242 1.44453 0.994593 1.22226 1.43912C0.925912 1.95773 0.925912 2.47635 1.22226 2.92087L2.62993 5.29167C2.92628 5.7362 3.3708 6.03255 3.88942 6.03255H8.7792L12.4836 8.47744L9.44599 10.3296C9.29781 10.4037 9.14964 10.5519 9.14964 10.7742L8.55694 13.5895L4.85256 15.0712C4.48212 15.2194 4.33394 15.5899 4.48212 15.9603C4.55621 16.2566 4.85256 16.4048 5.07482 16.4048C5.14891 16.4048 5.22299 16.4048 5.29708 16.3307L8.1865 15.1453L7.5938 17.8866C7.51971 18.1829 7.66789 18.4052 7.89015 18.5534L9.89051 19.8869C9.44599 22.3318 8.03832 33.445 17.892 41.3723V46.6326C17.892 49.1515 19.9664 51.3001 22.5595 51.3001C25.1526 51.3001 27.227 49.2256 27.227 46.6326V41.3723C37.0066 33.445 35.673 22.3318 35.2285 19.961L37.2288 18.6274C37.4511 18.4793 37.5993 18.1829 37.5252 17.9607L36.9325 15.2194L39.8219 16.4048C39.896 16.4048 39.9701 16.4789 40.0442 16.4789C40.3405 16.4789 40.5628 16.3307 40.6369 16.0344C40.7851 15.6639 40.6369 15.2935 40.2664 15.1453L36.5621 13.6636L35.9694 10.8482C35.8953 10.7001 35.8212 10.4778 35.673 10.4037L32.6354 8.55153L36.3398 6.10664H41.2296C41.7482 6.10664 42.1927 5.81029 42.4891 5.36576L43.8967 2.99496C44.0449 2.47635 44.0449 1.95773 43.8226 1.43912ZM22.4854 2.03182C25.2267 2.03182 30.561 3.06905 30.561 5.36576C30.561 7.66248 27.5975 11.2187 26.1898 12.6263H18.8551C17.4475 11.2187 14.4839 7.66248 14.4839 5.36576C14.4099 3.06905 19.7442 2.03182 22.4854 2.03182ZM8.33467 4.69897H3.88942C3.81533 4.69897 3.81533 4.69897 3.81533 4.62489L2.40766 2.25408C2.40766 2.17999 2.40766 2.17999 2.40766 2.10591C2.40766 2.10591 2.40766 2.03182 2.48175 2.03182H8.1865C8.26059 2.03182 8.33467 2.10591 8.33467 2.17999V4.69897ZM25.8194 46.6326C25.8194 48.4848 24.3376 49.9665 22.4854 49.9665C20.6332 49.9665 19.1515 48.4848 19.1515 46.6326V33.1486C19.1515 31.2964 20.6332 29.8147 22.4854 29.8147C24.3376 29.8147 25.8194 31.2964 25.8194 33.1486V46.6326ZM36.0434 17.7384L34.0431 19.072C33.8208 19.2201 33.6726 19.5165 33.7467 19.8128C33.7467 19.961 36.488 31.3705 27.1529 39.6683V33.1486C27.1529 30.6296 25.0785 28.4811 22.4854 28.4811C19.8923 28.4811 17.8179 30.5556 17.8179 33.1486V39.6683C8.48285 31.3705 11.15 19.961 11.2241 19.8128C11.2982 19.5165 11.15 19.2201 10.9277 19.072L8.92738 17.7384L10.335 11.2928L14.0394 9.07014C14.1135 8.99605 14.1876 8.99606 14.1876 8.92197C15.5953 11.3669 17.8179 13.5895 17.9661 13.7377C18.1142 13.8858 18.2624 13.9599 18.4106 13.9599H26.338C26.4861 13.9599 26.7084 13.8858 26.7825 13.7377C26.9307 13.5895 29.0792 11.3669 30.561 8.92197C30.635 8.99606 30.635 8.99605 30.7091 9.07014L34.4135 11.2928L36.0434 17.7384ZM42.6372 2.25408L41.2296 4.62489C41.2296 4.69897 41.1555 4.69897 41.1555 4.69897H36.7102V2.17999C36.7102 2.10591 36.7843 2.03182 36.8584 2.03182H42.5632C42.6372 2.03182 42.6372 2.03182 42.6372 2.10591C42.6372 2.17999 42.6372 2.17999 42.6372 2.25408Z" fill="#18337F" stroke="#18337F" stroke-width="0.25" stroke-miterlimit="10" stroke-linecap="round" stroke-linejoin="round"/>
</svg>
