<svg width="69" height="34" viewBox="0 0 69 34" fill="none" xmlns="http://www.w3.org/2000/svg">
<g clip-path="url(#clip0)">
<path d="M9.33881 7.67493H65.5267C66.6844 7.67493 67.6878 8.59592 67.6878 9.82391V23.4853H7.17773V9.82391C7.17773 8.67267 8.10391 7.67493 9.33881 7.67493Z" fill="#9FE8FF"/>
<path d="M65.4496 6.29346H9.33891C7.40938 6.29346 5.78857 7.82845 5.78857 9.82393V30.4695C5.78857 32.3883 7.3322 34 9.33891 34H11.9631H62.9027H65.5268C67.4564 34 69.0772 32.465 69.0772 30.4695V9.82393C69 7.9052 67.4564 6.29346 65.4496 6.29346ZM9.33891 7.67495H65.5268C66.6845 7.67495 67.6879 8.59594 67.6879 9.82393V23.4853H7.17784V9.82393C7.17784 8.67269 8.10401 7.67495 9.33891 7.67495ZM12.5805 32.6185V27.3228H62.1309V32.6185H12.5805ZM65.4496 32.6185H63.5201V26.6321C63.5201 26.2483 63.2114 25.9413 62.8255 25.9413H11.8859C11.5 25.9413 11.1913 26.2483 11.1913 26.6321V32.6185H9.26173C8.10401 32.6185 7.10065 31.6975 7.10065 30.4695V24.8668H67.5335V30.4695C67.6107 31.6208 66.6846 32.6185 65.4496 32.6185Z" fill="#18337F"/>
<path d="M39.2852 13.0474H52.3288C52.7147 13.0474 53.0235 12.7404 53.0235 12.3566C53.0235 11.9729 52.7147 11.6659 52.3288 11.6659H39.2852C38.8993 11.6659 38.5906 11.9729 38.5906 12.3566C38.5906 12.7404 38.8993 13.0474 39.2852 13.0474Z" fill="#18337F"/>
<path d="M56.3423 13.0474H62.9027C63.2886 13.0474 63.5974 12.7404 63.5974 12.3566C63.5974 11.9729 63.2886 11.6659 62.9027 11.6659H56.3423C55.9564 11.6659 55.6477 11.9729 55.6477 12.3566C55.6477 12.7404 55.9564 13.0474 56.3423 13.0474Z" fill="#18337F"/>
</g>
<defs>
<clipPath id="clip0">
<rect width="69" height="34" fill="white"/>
</clipPath>
</defs>
</svg>
