<svg width="51" height="48" viewBox="0 0 51 48" fill="none" xmlns="http://www.w3.org/2000/svg">
<path d="M9.98096 30.5986C9.98096 22.1335 16.921 15.2217 25.4206 15.2217C33.9201 15.2217 40.8602 22.1335 40.8602 30.5986C40.8602 39.0637 33.9201 45.9755 25.4206 45.9755C16.921 45.9755 9.98096 39.0637 9.98096 30.5986Z" fill="#9FE8FF"/>
<path d="M25.4208 41.6264C19.2606 41.6264 14.27 36.6561 14.27 30.5208C14.27 24.3856 19.2606 19.4153 25.4208 19.4153C31.5811 19.4153 36.5717 24.3856 36.5717 30.5208C36.5717 36.6561 31.5031 41.6264 25.4208 41.6264Z" fill="white"/>
<path d="M49.2038 23.6089V37.3549H40.9382C41.8739 35.2581 42.3418 33.0059 42.3418 30.5984C42.3418 28.1132 41.7959 25.7057 40.7822 23.6089H49.2038Z" fill="#9FE8FF"/>
<path d="M9.98118 23.6089C8.96746 25.7057 8.42162 28.1132 8.42162 30.5984C8.42162 33.0059 8.96746 35.3357 9.82522 37.3549H1.55957V23.6089H9.98118Z" fill="#9FE8FF"/>
<path d="M17.6233 13.0471H33.1408C35.0903 13.0471 36.6498 11.4939 36.6498 9.55233V3.49475C36.6498 1.55322 35.0903 0 33.1408 0H17.6233C15.6738 0 14.1143 1.55322 14.1143 3.49475V9.47466C14.1143 11.4939 15.6738 13.0471 17.6233 13.0471ZM15.6738 3.49475C15.6738 2.4075 16.5316 1.55322 17.6233 1.55322H33.1408C34.2325 1.55322 35.0903 2.4075 35.0903 3.49475V9.47466C35.0903 10.5619 34.2325 11.4162 33.1408 11.4162H17.6233C16.5316 11.4162 15.6738 10.5619 15.6738 9.47466V3.49475Z" fill="#18337F"/>
<path d="M47.0986 15.5324H46.3968V13.4356C46.3968 12.5813 45.695 11.8047 44.7593 11.8047H41.7961C40.9384 11.8047 40.1586 12.5036 40.1586 13.4356V15.5324H33.1406C30.8012 14.3675 28.15 13.6686 25.4208 13.6686C22.6915 13.6686 19.9623 14.3675 17.701 15.5324H10.683V13.4356C10.683 12.5813 9.98116 11.8047 9.04543 11.8047H6.00429C5.14654 11.8047 4.36676 12.5036 4.36676 13.4356V15.5324H3.509C1.55956 15.5324 0 17.0856 0 19.0272V41.8596C0 43.8787 1.63753 45.5873 3.74294 45.5873H17.701C20.0403 46.7522 22.6915 47.4512 25.4208 47.4512C28.15 47.4512 30.8792 46.7522 33.1406 45.5873H47.0986C49.126 45.5873 50.8415 43.9564 50.8415 41.8596V19.2602C50.7636 17.1633 49.126 15.5324 47.0986 15.5324ZM41.7181 13.4356C41.7181 13.4356 41.7181 13.3579 41.7181 13.4356L44.7593 13.3579C44.7593 13.3579 44.8373 13.3579 44.8373 13.4356V15.5324H41.7181V13.4356ZM40.1586 17.0856H46.3968H47.0986C48.2683 17.0856 49.282 18.0176 49.282 19.2602V22.056H40.0026C38.833 20.1144 37.3514 18.4835 35.5579 17.0856H40.1586ZM49.204 23.6092V37.3552H40.9384C41.8741 35.2584 42.342 33.0062 42.342 30.5987C42.342 28.1135 41.7961 25.706 40.7824 23.6092H49.204ZM6.00429 13.4356C6.00429 13.4356 6.00429 13.3579 6.00429 13.4356L9.04543 13.3579C9.04543 13.3579 9.12341 13.3579 9.12341 13.4356V15.5324H6.00429V13.4356ZM3.509 17.0856H4.36676H10.605H15.1277C13.3342 18.4059 11.8526 20.1144 10.683 22.056H1.55956V19.1048C1.55956 17.9399 2.41731 17.0856 3.509 17.0856ZM9.98116 23.6092C8.96745 25.706 8.42161 28.1135 8.42161 30.5987C8.42161 33.0062 8.96745 35.336 9.82521 37.3552H1.55956V23.6092H9.98116ZM3.74294 44.0341C2.57327 44.0341 1.55956 43.1021 1.55956 41.8596V38.8308H10.605C11.7747 40.85 13.3342 42.5585 15.1277 43.9564H3.74294V44.0341ZM9.98116 30.5987C9.98116 22.1336 16.9212 15.2218 25.4208 15.2218C33.9204 15.2218 40.8604 22.1336 40.8604 30.5987C40.8604 39.0638 33.9204 45.9756 25.4208 45.9756C16.9212 45.9756 9.98116 39.0638 9.98116 30.5987ZM47.0986 44.0341H35.6359C37.5073 42.6362 38.9889 40.9276 40.1586 38.9084H49.204V41.9372C49.204 43.1021 48.2683 44.0341 47.0986 44.0341Z" fill="#18337F"/>
<path d="M25.4208 17.9397C18.4028 17.9397 12.7104 23.609 12.7104 30.5985C12.7104 37.588 18.4028 43.2572 25.4208 43.2572C32.4388 43.2572 38.1312 37.588 38.1312 30.5985C38.1312 23.609 32.3609 17.9397 25.4208 17.9397ZM25.4208 41.6264C19.2606 41.6264 14.27 36.656 14.27 30.5208C14.27 24.3856 19.2606 19.4153 25.4208 19.4153C31.5811 19.4153 36.5717 24.3856 36.5717 30.5208C36.5717 36.656 31.5031 41.6264 25.4208 41.6264Z" fill="#18337F"/>
<path d="M17.6233 13.0471H33.1408C35.0903 13.0471 36.6498 11.4939 36.6498 9.55233V3.49475C36.6498 1.55322 35.0903 0 33.1408 0H17.6233C15.6738 0 14.1143 1.55322 14.1143 3.49475V9.47466C14.1143 11.4939 15.6738 13.0471 17.6233 13.0471ZM15.6738 3.49475C15.6738 2.4075 16.5316 1.55322 17.6233 1.55322H33.1408C34.2325 1.55322 35.0903 2.4075 35.0903 3.49475V9.47466C35.0903 10.5619 34.2325 11.4162 33.1408 11.4162H17.6233C16.5316 11.4162 15.6738 10.5619 15.6738 9.47466V3.49475Z" fill="#18337F"/>
</svg>
