<svg width="62" height="53" viewBox="0 0 62 53" fill="none" xmlns="http://www.w3.org/2000/svg">
<g clip-path="url(#clip0)">
<path d="M60.4079 48.7074C60.4079 50.1967 59.1697 51.4231 57.6661 51.4231H55.0128V45.4661C55.0128 43.5388 53.4208 42.0496 51.5634 42.0496H19.0156C17.0699 42.0496 15.5663 43.6264 15.5663 45.4661V51.4231H12.9129C11.4094 51.4231 10.1711 50.1967 10.1711 48.7074V31.0115C10.1711 29.5223 11.4094 28.2958 12.9129 28.2958H57.6661C59.1697 28.2958 60.4079 29.5223 60.4079 31.0115V48.7074Z" fill="#9FE8FF"/>
<path d="M58.3737 26.8066V20.3239C58.3737 18.9223 57.4892 17.6082 56.251 17.0826C55.8088 16.9074 55.3666 16.8198 54.8359 16.8198H53.067V7.00825C53.067 5.16858 51.5634 3.67932 49.7061 3.67932H20.873C19.0156 3.67932 17.5121 5.16858 17.5121 7.00825V16.7322H15.6547C13.7089 16.7322 12.1169 18.3091 12.1169 20.2363V26.719C10.0827 27.157 8.5791 28.9091 8.5791 31.0116V48.7074C8.5791 51.0727 10.5249 53 12.9129 53H57.6661C60.0541 53 61.9999 51.0727 61.9999 48.7074V31.0116C61.9999 28.9091 60.4079 27.157 58.3737 26.8066ZM15.6547 18.3091H17.5121V23.9157C17.5121 24.3537 17.8658 24.7041 18.3081 24.7041C18.7503 24.7041 19.1041 24.3537 19.1041 23.9157V7.00825C19.1041 6.04461 19.9001 5.25618 20.873 5.25618H49.7061C50.679 5.25618 51.475 6.04461 51.475 7.00825V23.8281C51.475 24.2661 51.8287 24.6165 52.271 24.6165C52.7132 24.6165 53.067 24.2661 53.067 23.8281V18.2215H54.8359C55.1012 18.2215 55.3666 18.3091 55.6319 18.3967C56.3394 18.6595 56.8701 19.4479 56.8701 20.2363V26.719H13.7089V20.2363C13.7089 19.1851 14.5934 18.3091 15.6547 18.3091ZM53.4208 51.4231H17.1583V45.4661C17.1583 44.4149 18.0427 43.5388 19.1041 43.5388H51.5634C52.6248 43.5388 53.5092 44.4149 53.5092 45.4661V51.4231H53.4208ZM60.4079 48.7074C60.4079 50.1967 59.1697 51.4231 57.6661 51.4231H55.0128V45.4661C55.0128 43.5388 53.4208 42.0496 51.5634 42.0496H19.0156C17.0698 42.0496 15.5663 43.6264 15.5663 45.4661V51.4231H12.9129C11.4093 51.4231 10.1711 50.1967 10.1711 48.7074V31.0116C10.1711 29.5223 11.4093 28.2958 12.9129 28.2958H57.6661C59.1697 28.2958 60.4079 29.5223 60.4079 31.0116V48.7074Z" fill="#18337F"/>
<path d="M53.067 30.8364C51.2097 30.8364 49.6177 32.3256 49.6177 34.2529C49.6177 36.0926 51.1212 37.6694 53.067 37.6694C55.0128 37.6694 56.5164 36.1802 56.5164 34.2529C56.428 32.3256 54.9244 30.8364 53.067 30.8364ZM53.067 36.0926C52.0057 36.0926 51.2097 35.3041 51.2097 34.2529C51.2097 33.2017 52.0057 32.4132 53.067 32.4132C54.1284 32.4132 54.9244 33.2017 54.9244 34.2529C54.9244 35.2165 54.0399 36.0926 53.067 36.0926Z" fill="#18337F"/>
</g>
<defs>
<clipPath id="clip0">
<rect width="62" height="53" fill="white"/>
</clipPath>
</defs>
</svg>
