<svg width="51" height="51" viewBox="0 0 51 51" fill="none" xmlns="http://www.w3.org/2000/svg">
<path d="M48.2959 32.555C49.0049 28.8748 50.1078 20.4967 46.7991 13.6063C46.5628 13.1365 46.2477 12.6667 45.6962 12.3535C45.3811 12.1969 45.066 12.0403 44.6721 12.1186C44.357 11.5705 44.0419 11.1007 43.7268 10.6309C43.648 10.4743 43.5693 10.396 43.4905 10.2394C43.4117 10.0828 43.3329 10.0045 43.2541 9.84792C42.3876 8.67341 41.4423 7.57721 40.4182 6.71591C40.2606 6.55931 40.1031 6.40271 39.9455 6.32441C39.9455 6.32441 39.9455 6.32441 39.8667 6.24611C39.1577 5.61971 38.37 5.07161 37.5822 4.52351C37.5034 4.44521 37.4246 4.44521 37.3458 4.36691C37.0307 4.21031 36.7156 3.97541 36.4793 3.8188C36.3217 3.7405 36.1642 3.6622 36.0066 3.5839C35.7703 3.4273 35.4552 3.2707 35.1401 3.1924C35.0613 3.1141 34.9038 3.1141 34.825 3.0358C34.0372 2.6443 33.5645 2.4877 33.4858 2.4094C33.407 2.4094 33.3282 2.3311 33.1707 2.3311C32.9343 2.2528 32.6192 2.1745 32.3829 2.0962C32.1465 2.0179 31.9102 1.9396 31.6739 1.8613C31.4376 1.783 31.1224 1.7047 30.8861 1.6264C30.6498 1.5481 30.4134 1.5481 30.1771 1.4698C29.862 1.3915 29.6257 1.3915 29.3106 1.3132C29.0742 1.3132 28.9167 1.2349 28.6803 1.2349C28.3652 1.1566 28.0501 1.1566 27.735 1.1566C27.5775 1.1566 27.3411 1.0783 27.1836 1.0783C26.7109 1.0783 26.1595 1 25.6868 1C25.1354 1 24.6627 1 24.19 1.0783C24.0325 1.0783 23.7962 1.0783 23.6386 1.1566C23.3235 1.1566 23.0084 1.2349 22.6933 1.2349C22.4569 1.2349 22.2206 1.3132 22.0631 1.3132C21.7479 1.3915 21.5116 1.3915 21.1965 1.4698C20.9602 1.5481 20.7238 1.5481 20.4875 1.6264C20.2512 1.7047 19.9361 1.783 19.6997 1.8613C19.4634 1.9396 19.2271 2.0179 18.9907 2.0962C18.7544 2.1745 18.4393 2.2528 18.203 2.3311C17.9666 2.4094 17.8091 2.4877 17.5728 2.566C17.3364 2.6443 17.0213 2.8009 16.785 2.8792C16.6274 2.9575 16.3911 3.0358 16.2335 3.1141C15.9184 3.2707 15.6821 3.349 15.367 3.5056C15.2094 3.5839 15.0519 3.6622 14.8943 3.7405C14.5792 3.89711 14.2641 4.13201 14.0278 4.28861C13.949 4.36691 13.8702 4.36691 13.7914 4.44521C13.0037 4.99331 12.2159 5.54141 11.5069 6.16781C11.5069 6.16781 11.5069 6.16781 11.4281 6.24611C10.5616 7.02911 9.69502 7.89041 8.90725 8.83001C8.82847 8.90831 8.7497 9.06491 8.67092 9.14322C8.35581 9.53472 8.11948 9.84792 7.88315 10.2394C7.80437 10.396 7.72559 10.4743 7.64681 10.6309C7.3317 11.1007 7.01659 11.6488 6.70149 12.1186C6.38638 12.1186 5.99249 12.1969 5.67738 12.3535C5.12594 12.6667 4.73205 13.1365 4.5745 13.6063C0.871967 20.4967 1.97485 28.8748 2.68384 32.555C1.1083 34.2776 0.635635 36.8615 1.73852 39.0539L5.5986 46.4924C6.22882 47.7452 7.25293 48.6848 8.43459 49.1546C9.14358 49.4678 9.93135 49.6244 10.7191 49.6244C14.5004 49.6244 15.367 46.8056 15.4458 46.1792L16.3911 45.7094C16.6274 45.6311 16.785 45.4745 17.0213 45.3179L17.1001 45.2396C17.2576 45.083 17.4152 45.0047 17.494 44.8481C17.494 44.8481 17.494 44.8481 17.494 44.7698C17.7303 44.4566 17.9666 44.0651 18.1242 43.5953C18.2817 43.2038 18.2817 42.734 18.2817 42.3425V42.2642C18.2817 42.1076 18.203 41.8727 18.203 41.7161C18.203 41.6378 18.203 41.6378 18.203 41.5595C18.1242 41.3246 18.0454 41.0897 17.9666 40.9331L13.5551 32.3201C13.4763 32.1635 13.3188 31.9286 13.24 31.772L13.1612 31.6937C13.0037 31.5371 12.9249 31.3805 12.7673 31.3022L12.6886 31.2239C12.531 31.1456 12.3735 30.989 12.2159 30.9107C12.2159 30.9107 12.1371 30.9107 12.1371 30.8324C11.9796 30.7541 11.822 30.6758 11.5857 30.5975C11.5069 30.5975 11.5069 30.5975 11.4281 30.5192C11.2706 30.4409 11.0342 30.4409 10.8767 30.3626C10.4828 28.7966 10.2465 27.3088 10.1677 25.8994C10.1677 25.8211 10.1677 25.6645 10.1677 25.5862C10.1677 25.3513 10.1677 25.1947 10.1677 24.9598C10.1677 24.8032 10.1677 24.6466 10.1677 24.49C10.1677 24.3334 10.1677 24.2551 10.1677 24.0985C10.1677 23.9419 10.1677 23.707 10.1677 23.5504C10.1677 23.4721 10.1677 23.3938 10.1677 23.2372C10.1677 23.0023 10.1677 22.8457 10.1677 22.6108C10.1677 22.5325 10.1677 22.5325 10.1677 22.4542C10.1677 22.2193 10.1677 21.9844 10.2465 21.8278C10.3252 20.6533 10.5616 19.6354 10.7979 18.7741C10.7979 18.6958 10.7979 18.6958 10.7979 18.6175C10.7979 18.4609 10.8767 18.3826 10.8767 18.226C10.8767 18.1477 10.9555 18.0694 10.9555 17.9911C10.9555 17.9128 11.0342 17.8345 11.0342 17.7562C11.0342 17.6779 11.113 17.5213 11.113 17.443C11.113 17.3647 11.113 17.3647 11.1918 17.2864C11.2706 17.1298 11.2706 16.9732 11.3493 16.8949C11.7432 15.9553 11.5069 14.8591 10.7979 14.0761C13.7914 8.90832 19.3846 5.69801 25.3717 5.61971C25.4505 5.61971 25.5293 5.61971 25.5293 5.61971H25.6868C31.6739 5.85461 37.1883 9.06491 40.2606 14.2327C39.5516 14.9374 39.3941 16.0336 39.7092 17.0515C39.7879 17.2081 39.7879 17.2864 39.8667 17.443C39.8667 17.5213 39.8667 17.5213 39.9455 17.5996C39.9455 17.6779 40.0243 17.7562 40.0243 17.9128C40.0243 17.9911 40.1031 18.0694 40.1031 18.1477C40.1031 18.226 40.1818 18.3043 40.1818 18.3826C40.1818 18.4609 40.2606 18.6175 40.2606 18.7741C40.2606 18.8524 40.2606 18.8524 40.2606 18.9307C40.4969 19.792 40.6545 20.8099 40.812 21.9844C40.812 21.9844 40.812 21.9844 40.812 22.0627C40.812 22.2976 40.812 22.4542 40.8908 22.6891C40.8908 22.7674 40.8908 22.7674 40.8908 22.8457C40.8908 23.0806 40.8908 23.2372 40.8908 23.4721C40.8908 23.5504 40.8908 23.6287 40.8908 23.7853C40.8908 23.9419 40.8908 24.1768 40.8908 24.3334C40.8908 24.49 40.8908 24.5683 40.8908 24.7249C40.8908 24.8815 40.8908 25.0381 40.8908 25.1947C40.8908 25.4296 40.8908 25.5862 40.8908 25.8211C40.8908 25.8994 40.8908 26.056 40.8908 26.1343C40.812 27.4654 40.5757 28.9531 40.1818 30.5975C40.0243 30.5975 39.7879 30.6758 39.6304 30.7541C39.5516 30.7541 39.5516 30.7541 39.4728 30.8324C39.3153 30.9107 39.0789 30.989 38.9214 31.0673C38.9214 31.0673 38.8426 31.0673 38.8426 31.1456C38.6851 31.2239 38.5275 31.3022 38.37 31.4588L38.2912 31.5371C38.1336 31.6937 37.9761 31.772 37.8973 31.9286L37.8185 32.0069C37.661 32.1635 37.5822 32.3201 37.5034 32.555L33.0919 41.168C33.0131 41.4029 32.9343 41.6378 32.8555 41.7944C32.8555 41.8727 32.8555 41.8727 32.8555 41.951C32.7768 42.1076 32.7768 42.3425 32.7768 42.4991V42.5774C32.7768 42.9689 32.7768 43.4387 32.9343 43.8302C33.0919 44.2217 33.3282 44.6132 33.5645 45.0047C33.5645 45.0047 33.5645 45.0047 33.5645 45.083C33.7221 45.2396 33.8009 45.3962 33.9584 45.4745L34.0372 45.5528C34.1948 45.7094 34.4311 45.866 34.6674 45.9443L35.6127 46.4141C35.6915 47.0405 36.5581 49.8593 40.3394 49.8593C41.1272 49.8593 41.9149 49.7027 42.6239 49.3895C43.8056 48.8414 44.8297 47.9801 45.4599 46.7273L49.32 39.2888C50.3441 36.8615 49.8714 34.2776 48.2959 32.555ZM44.1207 45.866C44.1207 45.866 44.0419 45.866 44.1207 45.866C44.0419 46.0226 43.9631 46.1792 43.8056 46.3358C43.8056 46.4141 43.7268 46.4141 43.7268 46.4924C43.648 46.5707 43.5693 46.7273 43.4905 46.8056L43.4117 46.8839C43.2541 47.0405 43.1754 47.1188 43.0178 47.2754L42.939 47.3537C42.8603 47.432 42.7027 47.5103 42.6239 47.5886C42.5452 47.5886 42.5452 47.6669 42.4664 47.6669C42.3088 47.7452 42.1513 47.8235 41.9937 47.9018H41.9149C41.7574 47.9801 41.5998 47.9801 41.521 48.0584C41.4423 48.0584 41.4423 48.0584 41.3635 48.1367C41.2059 48.1367 41.1272 48.215 40.9696 48.215C40.8908 48.215 40.8908 48.215 40.812 48.215C40.6545 48.215 40.4969 48.215 40.3394 48.215C40.2606 48.215 40.1818 48.215 40.1818 48.215C40.1031 48.215 40.0243 48.215 39.9455 48.215C39.8667 48.215 39.7879 48.215 39.7092 48.215C39.6304 48.215 39.5516 48.215 39.4728 48.1367C39.3941 48.1367 39.3153 48.1367 39.3153 48.0584C39.2365 48.0584 39.1577 47.9801 39.0002 47.9801C38.9214 47.9801 38.9214 47.9801 38.8426 47.9018C38.6851 47.8235 38.5275 47.8235 38.37 47.7452C38.2912 47.7452 38.2124 47.6669 38.1336 47.5886L38.0548 47.5103C37.9761 47.5103 37.9761 47.432 37.8973 47.432C37.8185 47.432 37.8185 47.3537 37.7397 47.2754C37.661 47.1971 37.661 47.1971 37.5822 47.1188C37.5034 47.0405 37.5034 47.0405 37.4246 46.9622C37.3458 46.8839 37.3458 46.8056 37.3458 46.8056C37.1095 46.2575 36.952 45.6311 37.4246 44.6915L37.7397 43.9868L40.0243 39.602L43.0178 33.7295C43.0966 33.6512 43.1754 33.4946 43.2541 33.4163L43.3329 33.338C43.4117 33.2597 43.4117 33.1814 43.4905 33.1031C43.5693 33.0248 43.5693 33.0248 43.648 32.9465C43.648 32.9465 43.648 32.9465 43.7268 32.8682C44.5146 32.2418 45.4599 32.3984 45.9326 32.555C46.0113 32.6333 46.0901 32.6333 46.2477 32.7116C48.3747 33.8078 49.1624 36.3917 48.1383 38.5058L44.1207 45.866ZM34.0372 42.4208C34.0372 42.1859 34.116 41.951 34.2735 41.6378L38.6851 33.0248C39.8667 31.0673 41.9937 32.3201 41.9937 32.3201C41.8362 32.555 37.5822 40.6982 37.5822 40.6982C37.5822 40.7765 37.5822 40.7765 37.5034 40.8548C37.1095 41.7161 36.7156 42.4208 36.4005 43.0472C36.3217 43.1255 36.3217 43.1255 36.243 43.2038C36.243 43.2038 35.6915 44.3783 35.6127 44.6132C35.6127 44.6915 33.8796 43.8302 34.0372 42.4208ZM12.2947 32.9465C12.2947 32.9465 12.2947 33.0248 12.2947 32.9465L16.7062 41.5595C16.8638 41.8727 16.8638 42.1076 16.9425 42.3425C17.1001 43.8302 15.2882 44.6132 15.2882 44.6132C15.2094 44.3783 14.658 43.2038 14.658 43.2038C14.658 43.1255 14.5792 43.1255 14.5004 43.0472C14.1853 42.4208 13.7914 41.6378 13.3976 40.8548C13.3976 40.7765 13.3976 40.7765 13.3188 40.6982C13.3188 40.6982 9.0648 32.4767 8.90725 32.3201C8.98603 32.3201 11.113 30.989 12.2947 32.9465ZM13.7914 46.7273C13.7914 46.8056 13.7127 46.8839 13.7127 46.8839C13.6339 46.9622 13.6339 46.9622 13.5551 47.0405C13.4763 47.1188 13.4763 47.1188 13.3976 47.1971C13.3188 47.2754 13.3188 47.2754 13.24 47.3537C13.1612 47.432 13.1612 47.432 13.0824 47.432C13.0037 47.432 13.0037 47.5103 13.0037 47.5103C12.8461 47.6669 12.7673 47.7452 12.7673 47.7452C12.6098 47.8235 12.4522 47.9018 12.2947 47.9018C12.2159 47.9018 12.2159 47.9018 12.1371 47.9801C12.0583 47.9801 11.9796 48.0584 11.822 48.0584C11.7432 48.0584 11.6645 48.0584 11.6645 48.1367C11.5857 48.1367 11.5069 48.1367 11.4281 48.215C11.3493 48.215 11.2706 48.215 11.1918 48.215C11.113 48.215 11.0342 48.215 10.9555 48.215C10.8767 48.215 10.7979 48.215 10.7979 48.215C10.6404 48.215 10.4828 48.215 10.3252 48.215C10.2465 48.215 10.2465 48.215 10.1677 48.215C10.0101 48.215 9.93135 48.1367 9.7738 48.1367C9.69502 48.1367 9.69502 48.1367 9.61625 48.0584C9.45869 47.9801 9.30114 47.9801 9.22236 47.9018H9.14358C8.98603 47.8235 8.82847 47.7452 8.67092 47.6669C8.59214 47.6669 8.59214 47.5886 8.51336 47.5886C8.43459 47.5103 8.27703 47.432 8.19825 47.3537L8.11948 47.2754C7.96192 47.1971 7.88315 47.0405 7.72559 46.8839L7.64681 46.8056C7.56804 46.7273 7.48926 46.5707 7.41048 46.4924C7.41048 46.4141 7.3317 46.4141 7.3317 46.3358C7.25293 46.1792 7.09537 46.0226 7.01659 45.866L3.15651 38.4275C2.05363 36.3134 2.92018 33.7295 5.04716 32.6333C5.12594 32.555 5.20472 32.555 5.36227 32.4767C5.83494 32.3201 6.78026 32.0852 7.56804 32.7899C7.56804 32.7899 7.56804 32.7899 7.64681 32.8682C7.72559 32.9465 7.72559 32.9465 7.80437 33.0248C7.88314 33.1031 7.88314 33.1814 7.96192 33.2597L8.0407 33.338C7.96192 33.338 8.0407 33.4946 8.11948 33.5729L10.9555 39.1322L13.3976 43.8302L13.7127 44.5349C14.1853 45.4745 14.1065 46.1792 13.7914 46.7273C13.8702 46.7273 13.8702 46.7273 13.7914 46.7273ZM8.82847 30.8324L7.88315 31.3022C7.3317 31.0673 6.85904 30.989 6.38638 30.989C5.04716 30.9107 4.10184 31.4588 4.02306 31.5371C4.02306 31.3805 3.94428 31.2239 3.94428 31.0673C2.36874 22.141 4.41694 16.3468 5.44105 14.2327C5.51983 14.1544 5.51983 14.0761 5.5986 13.9978L5.67738 13.9195C6.15004 13.4497 6.78026 13.528 7.09537 13.6846C7.17415 13.6846 7.17415 13.7629 7.25293 13.7629L7.3317 13.8412C7.88315 14.2327 8.51336 14.6242 9.30114 15.094C9.85258 15.4072 10.0101 16.0336 9.85258 16.66C9.7738 16.8166 9.7738 16.9732 9.69502 17.0515C9.69502 17.1298 9.61625 17.2081 9.61625 17.2864C9.61625 17.3647 9.53747 17.443 9.53747 17.5213C9.53747 17.5996 9.45869 17.7562 9.45869 17.8345C9.45869 17.9128 9.45869 17.9128 9.37991 17.9911C9.30114 18.1477 9.30114 18.3043 9.30114 18.3826V18.4609C8.98603 19.5571 8.7497 20.9665 8.67092 22.5325C8.67092 22.7674 8.67092 23.0023 8.67092 23.2372C8.67092 23.3155 8.67092 23.3155 8.67092 23.3938C8.67092 23.6287 8.67092 23.8636 8.67092 24.0985C8.67092 24.1768 8.67092 24.2551 8.67092 24.4117C8.67092 24.6466 8.67092 24.8032 8.67092 25.0381C8.67092 25.1947 8.67092 25.3513 8.67092 25.4296C8.67092 25.5862 8.67092 25.8211 8.67092 25.9777C8.67092 26.1343 8.67092 26.3692 8.74969 26.5258C8.74969 26.6824 8.7497 26.839 8.82847 26.9956C8.82847 27.3088 8.90725 27.5437 8.90725 27.8569C8.90725 27.9352 8.90725 28.0135 8.90725 28.0918C9.0648 28.8748 9.22236 29.6579 9.37991 30.4409C9.37991 30.4409 9.22236 30.5192 9.14358 30.5192C9.0648 30.6758 8.98603 30.7541 8.82847 30.8324ZM25.4505 4.36691C18.912 4.36691 12.8461 7.81211 9.53747 13.3714C8.98603 13.0582 7.88314 12.3535 7.80437 12.2752C8.0407 11.8054 8.35581 11.4139 8.67092 11.0224C8.7497 10.8658 8.82847 10.7875 8.90725 10.7092C9.14358 10.396 9.37991 10.0828 9.61625 9.84792C9.69502 9.76962 9.7738 9.61302 9.93135 9.53472C10.1677 9.22152 10.4828 8.90832 10.7979 8.59511C10.8767 8.51681 10.9555 8.43851 11.0342 8.36021C11.4281 7.96871 11.822 7.65551 12.2159 7.26401C12.9249 6.63761 13.7127 6.08951 14.5004 5.54141C14.8155 5.30651 15.2094 5.07161 15.6033 4.91501C15.7609 4.83671 15.8397 4.75841 15.9972 4.68011C16.2335 4.52351 16.5486 4.36691 16.785 4.28861C16.9425 4.21031 17.1001 4.13201 17.3364 4.05371C17.494 3.89711 17.7303 3.81881 17.9666 3.7405C18.1242 3.6622 18.3605 3.5839 18.5969 3.5056C18.8332 3.4273 19.0695 3.349 19.3058 3.2707C19.5422 3.1924 19.6997 3.1141 19.9361 3.1141C20.1724 3.0358 20.4087 2.9575 20.6451 2.8792C20.8814 2.8009 21.0389 2.8009 21.2753 2.7226C21.5116 2.6443 21.8267 2.6443 22.0631 2.566C22.2994 2.566 22.4569 2.4877 22.6933 2.4877C23.0084 2.4094 23.3235 2.4094 23.6386 2.4094C23.7962 2.4094 23.9537 2.4094 24.1113 2.3311C24.5839 2.3311 25.0566 2.2528 25.5293 2.2528C26.0019 2.2528 26.4746 2.2528 26.9472 2.3311C27.1048 2.3311 27.2624 2.3311 27.4199 2.4094C27.735 2.4094 28.0501 2.4877 28.3652 2.4877C28.6016 2.4877 28.7591 2.566 28.9955 2.566C29.2318 2.6443 29.5469 2.6443 29.7832 2.7226C30.0196 2.8009 30.1771 2.8009 30.4134 2.8792C30.6498 2.9575 30.8861 3.0358 31.1224 3.0358C31.3588 3.1141 31.5163 3.1924 31.7527 3.1924C31.989 3.2707 32.2253 3.349 32.4617 3.4273C32.698 3.5056 32.8555 3.5839 33.0919 3.6622C33.2494 3.8188 33.4858 3.89711 33.7221 4.05371C33.8796 4.13201 34.116 4.21031 34.2735 4.28861C34.4311 4.36691 34.6674 4.44521 34.825 4.60181C36.0066 5.22821 37.5034 6.16781 39.0789 7.42061C39.3941 7.73381 39.7092 8.04701 40.1031 8.36021C40.1818 8.43851 40.2606 8.51681 40.3394 8.59511C40.6545 8.90832 40.8908 9.22152 41.2059 9.53472C41.2847 9.61302 41.3635 9.76962 41.521 9.84792C41.7574 10.1611 41.9937 10.4743 42.23 10.7092C42.3088 10.7875 42.3876 10.9441 42.4664 11.0224C42.6239 11.179 42.7027 11.3356 42.7815 11.5705C42.939 11.8054 43.0966 12.1186 43.2541 12.3535C43.0178 12.5101 42.0725 13.0582 41.521 13.4497C38.0548 7.81211 32.0678 4.36691 25.4505 4.36691ZM41.521 30.5192C41.7574 29.7362 41.9149 28.8748 41.9937 28.1701C41.9937 28.0918 41.9937 28.0135 41.9937 27.9352C42.0725 27.622 42.0725 27.3871 42.0725 27.0739C42.0725 26.9173 42.0725 26.7607 42.1513 26.6041C42.1513 26.4475 42.1513 26.2126 42.23 26.056C42.23 25.8994 42.23 25.6645 42.23 25.5079C42.23 25.3513 42.23 25.1947 42.23 25.1164C42.23 24.8815 42.23 24.7249 42.23 24.49C42.23 24.4117 42.23 24.2551 42.23 24.1768C42.23 23.9419 42.23 23.707 42.23 23.4721C42.23 23.3938 42.23 23.3938 42.23 23.3155C42.23 23.0806 42.23 22.8457 42.23 22.6108C42.1513 21.0448 41.9149 19.6354 41.5998 18.5392V18.4609C41.5998 18.3043 41.521 18.1477 41.521 18.0694C41.521 17.9911 41.521 17.9911 41.4423 17.9128C41.4423 17.8345 41.3635 17.6779 41.3635 17.5996C41.3635 17.5213 41.2847 17.443 41.2847 17.3647C41.2847 17.2864 41.2059 17.2081 41.2059 17.1298C41.1272 16.9732 41.1272 16.8166 41.0484 16.7383C40.812 16.1902 41.0484 15.4855 41.5998 15.1723C42.3876 14.7025 43.0178 14.2327 43.5693 13.9195L43.648 13.8412C43.7268 13.8412 43.7268 13.7629 43.8056 13.7629C44.1995 13.6063 44.8297 13.528 45.2236 13.9978L45.3024 14.0761C45.3811 14.1544 45.4599 14.2327 45.4599 14.311C46.484 16.4251 48.611 22.2193 47.0355 31.1456C47.0355 31.3022 46.9567 31.4588 46.9567 31.6154C46.8779 31.5371 45.9326 30.989 44.5934 31.0673C44.1207 31.0673 43.648 31.1456 43.0966 31.3805L42.1513 30.9107C41.9937 30.8324 41.9149 30.8324 41.7574 30.7541C41.6786 30.5975 41.521 30.5975 41.521 30.5192Z" fill="#18337F"/>
<path d="M13.7914 46.7273C13.7914 46.8056 13.7127 46.8839 13.7127 46.8839C13.6339 46.9622 13.6339 46.9622 13.5551 47.0405C13.4763 47.1188 13.4763 47.1188 13.3976 47.1971C13.3188 47.2754 13.3188 47.2754 13.24 47.3537C13.1612 47.432 13.1612 47.432 13.0824 47.432C13.0037 47.432 13.0037 47.5103 13.0037 47.5103C12.8461 47.6669 12.7673 47.7452 12.7673 47.7452C12.6098 47.8235 12.4522 47.9018 12.2947 47.9018C12.2159 47.9018 12.2159 47.9018 12.1371 47.9801C12.0583 47.9801 11.9796 48.0584 11.822 48.0584C11.7432 48.0584 11.6645 48.0584 11.6645 48.1367C11.5857 48.1367 11.5069 48.1367 11.4281 48.215C11.3493 48.215 11.2706 48.215 11.1918 48.215C11.113 48.215 11.0342 48.215 10.9555 48.215C10.8767 48.215 10.7979 48.215 10.7979 48.215C10.6403 48.215 10.4828 48.215 10.3252 48.215C10.2465 48.215 10.2465 48.215 10.1677 48.215C10.0101 48.215 9.93135 48.1367 9.7738 48.1367C9.69502 48.1367 9.69502 48.1367 9.61625 48.0584C9.45869 47.9801 9.30114 47.9801 9.22236 47.9018H9.14358C8.98603 47.8235 8.82847 47.7452 8.67092 47.6669C8.59214 47.6669 8.59214 47.5886 8.51336 47.5886C8.43459 47.5103 8.27703 47.432 8.19825 47.3537L8.11948 47.2754C7.96192 47.1971 7.88315 47.0405 7.72559 46.8839L7.64681 46.8056C7.56804 46.7273 7.48926 46.5707 7.41048 46.4924C7.41048 46.4141 7.3317 46.4141 7.3317 46.3358C7.25293 46.1792 7.09537 46.0226 7.01659 45.866L3.15651 38.4275C2.05363 36.3134 2.92018 33.7295 5.04716 32.6333C5.12594 32.555 5.20472 32.555 5.36227 32.4767C5.83494 32.3201 6.78026 32.0852 7.56804 32.7899C7.56804 32.7899 7.56804 32.7899 7.64681 32.8682C7.72559 32.9465 7.72559 32.9465 7.80437 33.0248C7.88314 33.1031 7.88314 33.1814 7.96192 33.2597L8.0407 33.338C7.96192 33.338 8.0407 33.4946 8.11948 33.5729L10.9555 39.1322L13.3976 43.8302L13.7127 44.5349C14.1853 45.4745 14.1065 46.1792 13.7914 46.7273ZM13.7914 46.7273C13.8702 46.7273 13.8702 46.7273 13.7914 46.7273ZM48.2959 32.555C49.0049 28.8749 50.1078 20.4967 46.7991 13.6063C46.5628 13.1365 46.2477 12.6667 45.6962 12.3535C45.3811 12.1969 45.066 12.0403 44.6721 12.1186C44.357 11.5705 44.0419 11.1007 43.7268 10.6309C43.648 10.4743 43.5693 10.396 43.4905 10.2394C43.4117 10.0828 43.3329 10.0045 43.2541 9.84792C42.3876 8.67341 41.4423 7.57721 40.4182 6.71591C40.2606 6.55931 40.1031 6.40271 39.9455 6.32441C39.9455 6.32441 39.9455 6.32441 39.8667 6.24611C39.1577 5.61971 38.37 5.07161 37.5822 4.52351C37.5034 4.44521 37.4246 4.44521 37.3458 4.36691C37.0307 4.21031 36.7156 3.97541 36.4793 3.81881C36.3217 3.7405 36.1642 3.6622 36.0066 3.5839C35.7703 3.4273 35.4552 3.2707 35.1401 3.1924C35.0613 3.1141 34.9038 3.1141 34.825 3.0358C34.0372 2.6443 33.5645 2.4877 33.4858 2.4094C33.407 2.4094 33.3282 2.3311 33.1707 2.3311C32.9343 2.2528 32.6192 2.1745 32.3829 2.0962C32.1465 2.0179 31.9102 1.9396 31.6739 1.8613C31.4376 1.783 31.1224 1.7047 30.8861 1.6264C30.6498 1.5481 30.4134 1.5481 30.1771 1.4698C29.862 1.3915 29.6257 1.3915 29.3106 1.3132C29.0742 1.3132 28.9167 1.2349 28.6803 1.2349C28.3652 1.1566 28.0501 1.1566 27.735 1.1566C27.5775 1.1566 27.3411 1.0783 27.1836 1.0783C26.7109 1.0783 26.1595 1 25.6868 1C25.1354 1 24.6627 1 24.19 1.0783C24.0325 1.0783 23.7962 1.0783 23.6386 1.1566C23.3235 1.1566 23.0084 1.2349 22.6933 1.2349C22.4569 1.2349 22.2206 1.3132 22.0631 1.3132C21.7479 1.3915 21.5116 1.3915 21.1965 1.4698C20.9602 1.5481 20.7238 1.5481 20.4875 1.6264C20.2512 1.7047 19.9361 1.783 19.6997 1.8613C19.4634 1.9396 19.2271 2.0179 18.9907 2.0962C18.7544 2.1745 18.4393 2.2528 18.203 2.3311C17.9666 2.4094 17.8091 2.4877 17.5728 2.566C17.3364 2.6443 17.0213 2.8009 16.785 2.8792C16.6274 2.9575 16.3911 3.0358 16.2335 3.1141C15.9184 3.2707 15.6821 3.349 15.367 3.5056C15.2094 3.5839 15.0519 3.6622 14.8943 3.7405C14.5792 3.89711 14.2641 4.13201 14.0278 4.28861C13.949 4.36691 13.8702 4.36691 13.7914 4.44521C13.0037 4.99331 12.2159 5.54141 11.5069 6.16781C11.5069 6.16781 11.5069 6.16781 11.4281 6.24611C10.5616 7.02911 9.69502 7.89041 8.90725 8.83001C8.82847 8.90831 8.7497 9.06492 8.67092 9.14322C8.35581 9.53472 8.11948 9.84792 7.88315 10.2394C7.80437 10.396 7.72559 10.4743 7.64681 10.6309C7.3317 11.1007 7.0166 11.6488 6.70149 12.1186C6.38638 12.1186 5.99249 12.1969 5.67738 12.3535C5.12594 12.6667 4.73205 13.1365 4.5745 13.6063C0.871967 20.4967 1.97485 28.8749 2.68384 32.555C1.1083 34.2776 0.635635 36.8615 1.73852 39.0539L5.5986 46.4924C6.22882 47.7452 7.25293 48.6848 8.43459 49.1546C9.14358 49.4678 9.93135 49.6244 10.7191 49.6244C14.5004 49.6244 15.367 46.8056 15.4458 46.1792L16.3911 45.7094C16.6274 45.6311 16.785 45.4745 17.0213 45.3179L17.1001 45.2396C17.2576 45.083 17.4152 45.0047 17.494 44.8481C17.494 44.8481 17.494 44.8481 17.494 44.7698C17.7303 44.4566 17.9666 44.0651 18.1242 43.5953C18.2817 43.2038 18.2817 42.734 18.2817 42.3425V42.2642C18.2817 42.1076 18.203 41.8727 18.203 41.7161C18.203 41.6378 18.203 41.6378 18.203 41.5595C18.1242 41.3246 18.0454 41.0897 17.9666 40.9331L13.5551 32.3201C13.4763 32.1635 13.3188 31.9286 13.24 31.772L13.1612 31.6937C13.0037 31.5371 12.9249 31.3805 12.7673 31.3022L12.6886 31.2239C12.531 31.1456 12.3735 30.989 12.2159 30.9107C12.2159 30.9107 12.1371 30.9107 12.1371 30.8324C11.9796 30.7541 11.822 30.6758 11.5857 30.5975C11.5069 30.5975 11.5069 30.5975 11.4281 30.5192C11.2706 30.4409 11.0342 30.4409 10.8767 30.3626C10.4828 28.7966 10.2465 27.3088 10.1677 25.8994C10.1677 25.8211 10.1677 25.6645 10.1677 25.5862C10.1677 25.3513 10.1677 25.1947 10.1677 24.9598C10.1677 24.8032 10.1677 24.6466 10.1677 24.49C10.1677 24.3334 10.1677 24.2551 10.1677 24.0985C10.1677 23.9419 10.1677 23.707 10.1677 23.5504C10.1677 23.4721 10.1677 23.3938 10.1677 23.2372C10.1677 23.0023 10.1677 22.8457 10.1677 22.6108C10.1677 22.5325 10.1677 22.5325 10.1677 22.4542C10.1677 22.2193 10.1677 21.9844 10.2465 21.8278C10.3252 20.6533 10.5616 19.6354 10.7979 18.7741C10.7979 18.6958 10.7979 18.6958 10.7979 18.6175C10.7979 18.4609 10.8767 18.3826 10.8767 18.226C10.8767 18.1477 10.9555 18.0694 10.9555 17.9911C10.9555 17.9128 11.0342 17.8345 11.0342 17.7562C11.0342 17.6779 11.113 17.5213 11.113 17.443C11.113 17.3647 11.113 17.3647 11.1918 17.2864C11.2706 17.1298 11.2706 16.9732 11.3493 16.8949C11.7432 15.9553 11.5069 14.8591 10.7979 14.0761C13.7914 8.90832 19.3846 5.69801 25.3717 5.61971C25.4505 5.61971 25.5293 5.61971 25.5293 5.61971H25.6868C31.6739 5.85461 37.1883 9.06491 40.2606 14.2327C39.5516 14.9374 39.3941 16.0336 39.7092 17.0515C39.7879 17.2081 39.7879 17.2864 39.8667 17.443C39.8667 17.5213 39.8667 17.5213 39.9455 17.5996C39.9455 17.6779 40.0243 17.7562 40.0243 17.9128C40.0243 17.9911 40.1031 18.0694 40.1031 18.1477C40.1031 18.226 40.1818 18.3043 40.1818 18.3826C40.1818 18.4609 40.2606 18.6175 40.2606 18.7741C40.2606 18.8524 40.2606 18.8524 40.2606 18.9307C40.4969 19.792 40.6545 20.8099 40.812 21.9844C40.812 21.9844 40.812 21.9844 40.812 22.0627C40.812 22.2976 40.812 22.4542 40.8908 22.6891C40.8908 22.7674 40.8908 22.7674 40.8908 22.8457C40.8908 23.0806 40.8908 23.2372 40.8908 23.4721C40.8908 23.5504 40.8908 23.6287 40.8908 23.7853C40.8908 23.9419 40.8908 24.1768 40.8908 24.3334C40.8908 24.49 40.8908 24.5683 40.8908 24.7249C40.8908 24.8815 40.8908 25.0381 40.8908 25.1947C40.8908 25.4296 40.8908 25.5862 40.8908 25.8211C40.8908 25.8994 40.8908 26.056 40.8908 26.1343C40.812 27.4654 40.5757 28.9532 40.1818 30.5975C40.0243 30.5975 39.7879 30.6758 39.6304 30.7541C39.5516 30.7541 39.5516 30.7541 39.4728 30.8324C39.3153 30.9107 39.0789 30.989 38.9214 31.0673C38.9214 31.0673 38.8426 31.0673 38.8426 31.1456C38.6851 31.2239 38.5275 31.3022 38.37 31.4588L38.2912 31.5371C38.1336 31.6937 37.9761 31.772 37.8973 31.9286L37.8185 32.0069C37.661 32.1635 37.5822 32.3201 37.5034 32.555L33.0919 41.168C33.0131 41.4029 32.9343 41.6378 32.8555 41.7944C32.8555 41.8727 32.8555 41.8727 32.8555 41.951C32.7768 42.1076 32.7768 42.3425 32.7768 42.4991V42.5774C32.7768 42.9689 32.7768 43.4387 32.9343 43.8302C33.0919 44.2217 33.3282 44.6132 33.5645 45.0047C33.5645 45.0047 33.5645 45.0047 33.5645 45.083C33.7221 45.2396 33.8009 45.3962 33.9584 45.4745L34.0372 45.5528C34.1948 45.7094 34.4311 45.866 34.6674 45.9443L35.6127 46.4141C35.6915 47.0405 36.5581 49.8593 40.3394 49.8593C41.1272 49.8593 41.9149 49.7027 42.6239 49.3895C43.8056 48.8414 44.8297 47.9801 45.4599 46.7273L49.32 39.2888C50.3441 36.8615 49.8714 34.2776 48.2959 32.555ZM44.1207 45.866C44.1207 45.866 44.0419 45.866 44.1207 45.866C44.0419 46.0226 43.9631 46.1792 43.8056 46.3358C43.8056 46.4141 43.7268 46.4141 43.7268 46.4924C43.648 46.5707 43.5693 46.7273 43.4905 46.8056L43.4117 46.8839C43.2541 47.0405 43.1754 47.1188 43.0178 47.2754L42.939 47.3537C42.8603 47.432 42.7027 47.5103 42.6239 47.5886C42.5452 47.5886 42.5451 47.6669 42.4664 47.6669C42.3088 47.7452 42.1513 47.8235 41.9937 47.9018H41.9149C41.7574 47.9801 41.5998 47.9801 41.521 48.0584C41.4423 48.0584 41.4423 48.0584 41.3635 48.1367C41.2059 48.1367 41.1272 48.215 40.9696 48.215C40.8908 48.215 40.8908 48.215 40.812 48.215C40.6545 48.215 40.4969 48.215 40.3394 48.215C40.2606 48.215 40.1818 48.215 40.1818 48.215C40.1031 48.215 40.0243 48.215 39.9455 48.215C39.8667 48.215 39.7879 48.215 39.7092 48.215C39.6304 48.215 39.5516 48.215 39.4728 48.1367C39.3941 48.1367 39.3153 48.1367 39.3153 48.0584C39.2365 48.0584 39.1577 47.9801 39.0002 47.9801C38.9214 47.9801 38.9214 47.9801 38.8426 47.9018C38.6851 47.8235 38.5275 47.8235 38.37 47.7452C38.2912 47.7452 38.2124 47.6669 38.1336 47.5886L38.0548 47.5103C37.9761 47.5103 37.9761 47.432 37.8973 47.432C37.8185 47.432 37.8185 47.3537 37.7397 47.2754C37.661 47.1971 37.661 47.1971 37.5822 47.1188C37.5034 47.0405 37.5034 47.0405 37.4246 46.9622C37.3458 46.8839 37.3458 46.8056 37.3458 46.8056C37.1095 46.2575 36.952 45.6311 37.4246 44.6915L37.7397 43.9868L40.0243 39.602L43.0178 33.7295C43.0966 33.6512 43.1754 33.4946 43.2541 33.4163L43.3329 33.338C43.4117 33.2597 43.4117 33.1814 43.4905 33.1031C43.5693 33.0248 43.5693 33.0248 43.648 32.9465C43.648 32.9465 43.648 32.9465 43.7268 32.8682C44.5146 32.2418 45.4599 32.3984 45.9326 32.555C46.0113 32.6333 46.0901 32.6333 46.2477 32.7116C48.3747 33.8078 49.1624 36.3917 48.1383 38.5058L44.1207 45.866ZM34.0372 42.4208C34.0372 42.1859 34.116 41.951 34.2735 41.6378L38.6851 33.0248C39.8667 31.0673 41.9937 32.3201 41.9937 32.3201C41.8362 32.555 37.5822 40.6982 37.5822 40.6982C37.5822 40.7765 37.5822 40.7765 37.5034 40.8548C37.1095 41.7161 36.7156 42.4208 36.4005 43.0472C36.3217 43.1255 36.3217 43.1255 36.243 43.2038C36.243 43.2038 35.6915 44.3783 35.6127 44.6132C35.6127 44.6915 33.8796 43.8302 34.0372 42.4208ZM12.2947 32.9465C12.2947 32.9465 12.2947 33.0248 12.2947 32.9465L16.7062 41.5595C16.8638 41.8727 16.8638 42.1076 16.9425 42.3425C17.1001 43.8302 15.2882 44.6132 15.2882 44.6132C15.2094 44.3783 14.658 43.2038 14.658 43.2038C14.658 43.1255 14.5792 43.1255 14.5004 43.0472C14.1853 42.4208 13.7914 41.6378 13.3976 40.8548C13.3976 40.7765 13.3976 40.7765 13.3188 40.6982C13.3188 40.6982 9.0648 32.4767 8.90725 32.3201C8.98603 32.3201 11.113 30.989 12.2947 32.9465ZM8.82847 30.8324L7.88315 31.3022C7.3317 31.0673 6.85904 30.989 6.38638 30.989C5.04716 30.9107 4.10184 31.4588 4.02306 31.5371C4.02306 31.3805 3.94428 31.2239 3.94428 31.0673C2.36874 22.141 4.41694 16.3468 5.44105 14.2327C5.51983 14.1544 5.51983 14.0761 5.5986 13.9978L5.67738 13.9195C6.15004 13.4497 6.78026 13.528 7.09537 13.6846C7.17415 13.6846 7.17415 13.7629 7.25293 13.7629L7.3317 13.8412C7.88315 14.2327 8.51336 14.6242 9.30114 15.094C9.85258 15.4072 10.0101 16.0336 9.85258 16.66C9.7738 16.8166 9.7738 16.9732 9.69502 17.0515C9.69502 17.1298 9.61625 17.2081 9.61625 17.2864C9.61625 17.3647 9.53747 17.443 9.53747 17.5213C9.53747 17.5996 9.45869 17.7562 9.45869 17.8345C9.45869 17.9128 9.45869 17.9128 9.37991 17.9911C9.30114 18.1477 9.30114 18.3043 9.30114 18.3826V18.4609C8.98603 19.5571 8.7497 20.9665 8.67092 22.5325C8.67092 22.7674 8.67092 23.0023 8.67092 23.2372C8.67092 23.3155 8.67092 23.3155 8.67092 23.3938C8.67092 23.6287 8.67092 23.8636 8.67092 24.0985C8.67092 24.1768 8.67092 24.2551 8.67092 24.4117C8.67092 24.6466 8.67092 24.8032 8.67092 25.0381C8.67092 25.1947 8.67092 25.3513 8.67092 25.4296C8.67092 25.5862 8.67092 25.8211 8.67092 25.9777C8.67092 26.1343 8.67092 26.3692 8.74969 26.5258C8.74969 26.6824 8.7497 26.839 8.82847 26.9956C8.82847 27.3088 8.90725 27.5437 8.90725 27.8569C8.90725 27.9352 8.90725 28.0135 8.90725 28.0918C9.0648 28.8748 9.22236 29.6579 9.37991 30.4409C9.37991 30.4409 9.22236 30.5192 9.14358 30.5192C9.0648 30.6758 8.98603 30.7541 8.82847 30.8324ZM25.4505 4.36691C18.912 4.36691 12.8461 7.81211 9.53747 13.3714C8.98603 13.0582 7.88314 12.3535 7.80437 12.2752C8.0407 11.8054 8.35581 11.4139 8.67092 11.0224C8.7497 10.8658 8.82847 10.7875 8.90725 10.7092C9.14358 10.396 9.37991 10.0828 9.61625 9.84792C9.69502 9.76962 9.7738 9.61302 9.93135 9.53472C10.1677 9.22152 10.4828 8.90831 10.7979 8.59511C10.8767 8.51681 10.9555 8.43851 11.0342 8.36021C11.4281 7.96871 11.822 7.65551 12.2159 7.26401C12.9249 6.63761 13.7127 6.08951 14.5004 5.54141C14.8155 5.30651 15.2094 5.07161 15.6033 4.91501C15.7609 4.83671 15.8397 4.75841 15.9972 4.68011C16.2335 4.52351 16.5486 4.36691 16.785 4.28861C16.9425 4.21031 17.1001 4.13201 17.3364 4.05371C17.494 3.89711 17.7303 3.81881 17.9666 3.7405C18.1242 3.6622 18.3605 3.5839 18.5969 3.5056C18.8332 3.4273 19.0695 3.349 19.3058 3.2707C19.5422 3.1924 19.6997 3.1141 19.9361 3.1141C20.1724 3.0358 20.4087 2.9575 20.6451 2.8792C20.8814 2.8009 21.039 2.8009 21.2753 2.7226C21.5116 2.6443 21.8267 2.6443 22.0631 2.566C22.2994 2.566 22.4569 2.4877 22.6933 2.4877C23.0084 2.4094 23.3235 2.4094 23.6386 2.4094C23.7962 2.4094 23.9537 2.4094 24.1113 2.3311C24.5839 2.3311 25.0566 2.2528 25.5293 2.2528C26.0019 2.2528 26.4746 2.2528 26.9472 2.3311C27.1048 2.3311 27.2624 2.3311 27.4199 2.4094C27.735 2.4094 28.0501 2.4877 28.3652 2.4877C28.6016 2.4877 28.7591 2.566 28.9955 2.566C29.2318 2.6443 29.5469 2.6443 29.7832 2.7226C30.0196 2.8009 30.1771 2.8009 30.4134 2.8792C30.6498 2.9575 30.8861 3.0358 31.1224 3.0358C31.3588 3.1141 31.5163 3.1924 31.7527 3.1924C31.989 3.2707 32.2253 3.349 32.4617 3.4273C32.698 3.5056 32.8555 3.5839 33.0919 3.6622C33.2494 3.81881 33.4858 3.89711 33.7221 4.05371C33.8796 4.13201 34.116 4.21031 34.2735 4.28861C34.4311 4.36691 34.6674 4.44521 34.825 4.60181C36.0066 5.22821 37.5034 6.16781 39.0789 7.42061C39.3941 7.73381 39.7092 8.04701 40.1031 8.36021C40.1818 8.43851 40.2606 8.51681 40.3394 8.59511C40.6545 8.90831 40.8908 9.22152 41.2059 9.53472C41.2847 9.61302 41.3635 9.76962 41.521 9.84792C41.7574 10.1611 41.9937 10.4743 42.23 10.7092C42.3088 10.7875 42.3876 10.9441 42.4664 11.0224C42.6239 11.179 42.7027 11.3356 42.7815 11.5705C42.939 11.8054 43.0966 12.1186 43.2541 12.3535C43.0178 12.5101 42.0725 13.0582 41.521 13.4497C38.0548 7.81211 32.0678 4.36691 25.4505 4.36691ZM41.521 30.5192C41.7574 29.7361 41.9149 28.8748 41.9937 28.1701C41.9937 28.0918 41.9937 28.0135 41.9937 27.9352C42.0725 27.622 42.0725 27.3871 42.0725 27.0739C42.0725 26.9173 42.0725 26.7607 42.1513 26.6041C42.1513 26.4475 42.1513 26.2126 42.23 26.056C42.23 25.8994 42.23 25.6645 42.23 25.5079C42.23 25.3513 42.23 25.1947 42.23 25.1164C42.23 24.8815 42.23 24.7249 42.23 24.49C42.23 24.4117 42.23 24.2551 42.23 24.1768C42.23 23.9419 42.23 23.707 42.23 23.4721C42.23 23.3938 42.23 23.3938 42.23 23.3155C42.23 23.0806 42.23 22.8457 42.23 22.6108C42.1513 21.0448 41.9149 19.6354 41.5998 18.5392V18.4609C41.5998 18.3043 41.521 18.1477 41.521 18.0694C41.521 17.9911 41.521 17.9911 41.4423 17.9128C41.4423 17.8345 41.3635 17.6779 41.3635 17.5996C41.3635 17.5213 41.2847 17.443 41.2847 17.3647C41.2847 17.2864 41.2059 17.2081 41.2059 17.1298C41.1272 16.9732 41.1272 16.8166 41.0484 16.7383C40.812 16.1902 41.0484 15.4855 41.5998 15.1723C42.3876 14.7025 43.0178 14.2327 43.5693 13.9195L43.648 13.8412C43.7268 13.8412 43.7268 13.7629 43.8056 13.7629C44.1995 13.6063 44.8297 13.528 45.2236 13.9978L45.3024 14.0761C45.3811 14.1544 45.4599 14.2327 45.4599 14.311C46.484 16.4251 48.611 22.2193 47.0355 31.1456C47.0355 31.3022 46.9567 31.4588 46.9567 31.6154C46.8779 31.5371 45.9326 30.989 44.5934 31.0673C44.1207 31.0673 43.648 31.1456 43.0966 31.3805L42.1513 30.9107C41.9937 30.8324 41.9149 30.8324 41.7574 30.7541C41.6786 30.5975 41.521 30.5975 41.521 30.5192Z" stroke="#18337F" stroke-width="0.5" stroke-miterlimit="10"/>
<path d="M44.1208 45.8659C44.1208 45.8659 44.042 45.8659 44.1208 45.8659C44.042 46.0225 43.9632 46.1791 43.8057 46.3357C43.8057 46.414 43.7269 46.414 43.7269 46.4923C43.6481 46.5706 43.5694 46.7272 43.4906 46.8055L43.4118 46.8838C43.2542 47.0404 43.1755 47.1187 43.0179 47.2753L42.9391 47.3536C42.8604 47.4319 42.7028 47.5102 42.624 47.5885C42.5453 47.5885 42.5452 47.6668 42.4665 47.6668C42.3089 47.7451 42.1514 47.8234 41.9938 47.9017H41.915C41.7575 47.98 41.5999 47.98 41.5211 48.0583C41.4424 48.0583 41.4424 48.0583 41.3636 48.1366C41.206 48.1366 41.1273 48.2149 40.9697 48.2149C40.8909 48.2149 40.8909 48.2149 40.8121 48.2149C40.6546 48.2149 40.497 48.2149 40.3395 48.2149C40.2607 48.2149 40.1819 48.2149 40.1819 48.2149C40.1032 48.2149 40.0244 48.2149 39.9456 48.2149C39.8668 48.2149 39.788 48.2149 39.7093 48.2149C39.6305 48.2149 39.5517 48.2149 39.4729 48.1366C39.3942 48.1366 39.3154 48.1366 39.3154 48.0583C39.2366 48.0583 39.1578 47.98 39.0003 47.98C38.9215 47.98 38.9215 47.98 38.8427 47.9017C38.6852 47.8234 38.5276 47.8234 38.3701 47.7451C38.2913 47.7451 38.2125 47.6668 38.1337 47.5885L38.0549 47.5102C37.9762 47.5102 37.9762 47.4319 37.8974 47.4319C37.8186 47.4319 37.8186 47.3536 37.7398 47.2753C37.6611 47.197 37.6611 47.197 37.5823 47.1187C37.5035 47.0404 37.5035 47.0404 37.4247 46.9621C37.3459 46.8838 37.3459 46.8055 37.3459 46.8055C37.1096 46.2574 36.9521 45.631 37.4247 44.6914L37.7398 43.9867L40.0244 39.6019L43.0179 33.7294C43.0967 33.6511 43.1755 33.4945 43.2542 33.4162L43.333 33.3379C43.4118 33.2596 43.4118 33.1813 43.4906 33.103C43.5694 33.0247 43.5694 33.0247 43.6481 32.9464C43.6481 32.9464 43.6481 32.9464 43.7269 32.8681C44.5147 32.2417 45.46 32.3983 45.9327 32.5549C46.0114 32.6332 46.0902 32.6332 46.2478 32.7115C48.3748 33.8077 49.1625 36.3916 48.1384 38.5057L44.1208 45.8659Z" fill="#9FE8FF"/>
<path d="M13.7915 46.7273C13.7915 46.8056 13.7128 46.8839 13.7128 46.8839C13.634 46.9622 13.634 46.9622 13.5552 47.0405C13.4764 47.1188 13.4764 47.1188 13.3976 47.1971C13.3189 47.2754 13.3189 47.2754 13.2401 47.3537C13.1613 47.432 13.1613 47.432 13.0825 47.432C13.0038 47.432 13.0038 47.5103 13.0038 47.5103C12.8462 47.6669 12.7674 47.7452 12.7674 47.7452C12.6099 47.8235 12.4523 47.9018 12.2948 47.9018C12.216 47.9018 12.216 47.9018 12.1372 47.9801C12.0584 47.9801 11.9797 48.0584 11.8221 48.0584C11.7433 48.0584 11.6645 48.0584 11.6645 48.1367C11.5858 48.1367 11.507 48.1367 11.4282 48.215C11.3494 48.215 11.2707 48.215 11.1919 48.215C11.1131 48.215 11.0343 48.215 10.9556 48.215C10.8768 48.215 10.798 48.215 10.798 48.215C10.6404 48.215 10.4829 48.215 10.3253 48.215C10.2466 48.215 10.2466 48.215 10.1678 48.215C10.0102 48.215 9.93145 48.1367 9.77389 48.1367C9.69511 48.1367 9.69511 48.1367 9.61634 48.0584C9.45878 47.9801 9.30123 47.9801 9.22245 47.9018H9.14367C8.98612 47.8235 8.82856 47.7452 8.67101 47.6669C8.59223 47.6669 8.59223 47.5886 8.51345 47.5886C8.43468 47.5103 8.27712 47.432 8.19835 47.3537L8.11957 47.2754C7.96201 47.1971 7.88324 47.0405 7.72568 46.8839L7.6469 46.8056C7.56813 46.7273 7.48935 46.5707 7.41057 46.4924C7.41057 46.4141 7.3318 46.4141 7.3318 46.3358C7.25302 46.1792 7.09546 46.0226 7.01669 45.866L3.1566 38.4275C2.05372 36.3133 2.92027 33.7294 5.04725 32.6332C5.12603 32.5549 5.20481 32.5549 5.36236 32.4766C5.83503 32.32 6.78035 32.0851 7.56813 32.7898C7.56813 32.7898 7.56813 32.7898 7.6469 32.8681C7.72568 32.9464 7.72568 32.9464 7.80446 33.0247C7.88324 33.103 7.88324 33.1813 7.96201 33.2596L8.04079 33.3379C7.96201 33.3379 8.04079 33.4945 8.11957 33.5728L10.9556 39.1322L13.3976 43.8302L13.7128 44.5349C14.1854 45.4745 14.1066 46.1792 13.7915 46.7273C13.8703 46.7273 13.8703 46.7273 13.7915 46.7273Z" fill="#9FE8FF"/>
<path d="M25.4503 4.36679C18.9118 4.36679 12.8459 7.812 9.5373 13.3713C8.98586 13.0581 7.88298 12.3534 7.8042 12.2751C8.04053 11.8053 8.35564 11.4138 8.67075 11.0223C8.74953 10.8657 8.8283 10.7874 8.90708 10.7091C9.14341 10.3959 9.37975 10.0827 9.61608 9.8478C9.69485 9.7695 9.77363 9.6129 9.93119 9.5346C10.1675 9.2214 10.4826 8.9082 10.7977 8.595C10.8765 8.5167 10.9553 8.4384 11.0341 8.3601C11.428 7.9686 11.8218 7.6554 12.2157 7.2639C12.9247 6.63749 13.7125 6.08939 14.5003 5.54129C14.8154 5.30639 15.2093 5.07149 15.6032 4.91489C15.7607 4.83659 15.8395 4.75829 15.997 4.67999C16.2334 4.52339 16.5485 4.36679 16.7848 4.28849C16.9424 4.21019 17.0999 4.13189 17.3363 4.05359C17.4938 3.89699 17.7301 3.81869 17.9665 3.74039C18.124 3.66209 18.3604 3.58379 18.5967 3.50549C18.833 3.42719 19.0694 3.34889 19.3057 3.27059C19.542 3.19229 19.6996 3.11399 19.9359 3.11399C20.1722 3.03569 20.4086 2.95739 20.6449 2.87909C20.8812 2.80079 21.0388 2.80079 21.2751 2.72249C21.5114 2.64419 21.8266 2.64419 22.0629 2.56589C22.2992 2.56589 22.4568 2.48759 22.6931 2.48759C23.0082 2.40929 23.3233 2.40929 23.6384 2.40929C23.796 2.40929 23.9535 2.40929 24.1111 2.33099C24.5838 2.33099 25.0564 2.25269 25.5291 2.25269C26.0018 2.25269 26.4744 2.25269 26.9471 2.33099C27.1046 2.33099 27.2622 2.33099 27.4197 2.40929C27.7349 2.40929 28.05 2.48759 28.3651 2.48759C28.6014 2.48759 28.759 2.56589 28.9953 2.56589C29.2316 2.64419 29.5467 2.64419 29.7831 2.72249C30.0194 2.80079 30.177 2.80079 30.4133 2.87909C30.6496 2.95739 30.8859 3.03569 31.1223 3.03569C31.3586 3.11399 31.5162 3.19229 31.7525 3.19229C31.9888 3.27059 32.2252 3.34889 32.4615 3.42719C32.6978 3.50549 32.8554 3.58379 33.0917 3.66209C33.2493 3.81869 33.4856 3.89699 33.7219 4.05359C33.8795 4.13189 34.1158 4.21019 34.2734 4.28849C34.4309 4.36679 34.6673 4.44509 34.8248 4.60169C36.0065 5.22809 37.5032 6.16769 39.0788 7.4205C39.3939 7.7337 39.709 8.0469 40.1029 8.3601C40.1817 8.4384 40.2604 8.5167 40.3392 8.595C40.6543 8.9082 40.8907 9.2214 41.2058 9.5346C41.2846 9.6129 41.3633 9.7695 41.5209 9.8478C41.7572 10.161 41.9935 10.4742 42.2299 10.7091C42.3087 10.7874 42.3874 10.944 42.4662 11.0223C42.6238 11.1789 42.7025 11.3355 42.7813 11.5704C42.9389 11.8053 43.0964 12.1185 43.254 12.3534C43.0177 12.51 42.0723 13.0581 41.5209 13.4496C38.0547 7.812 32.0676 4.36679 25.4503 4.36679Z" fill="#9FE8FF"/>
</svg>
