<svg width="36" height="53" viewBox="0 0 36 53" fill="none" xmlns="http://www.w3.org/2000/svg">
<path d="M35.9201 16.1681H0.318359V42.292H35.9201V16.1681Z" fill="#9FE8FF"/>
<path d="M6.21191 17.5221V19.2743C6.21191 19.5929 6.45085 19.8318 6.76944 19.8318H29.15C29.4685 19.8318 29.7075 19.5929 29.7075 19.2743V17.5221H6.21191Z" fill="white"/>
<path d="M33.7699 2.86731H2.15044C0.955752 2.86731 0 3.82306 0 5.0974V12.1859C0 12.5841 0.318584 12.9027 0.637168 12.9027C0.955752 12.9027 1.27434 12.5841 1.27434 12.1859V5.0974C1.27434 4.61952 1.67257 4.22129 2.0708 4.22129H33.7699C34.2478 4.22129 34.5664 4.61952 34.5664 5.0974V11.8673H1.27434V10.354C1.27434 9.95581 0.955752 9.63722 0.637168 9.63722C0.318584 9.63722 0 9.95581 0 10.354V47.1505C0 48.4248 0.955752 49.3806 2.15044 49.3806H33.8496C35.0442 49.3806 36 48.3452 36 47.1505V5.0974C35.9204 3.82306 34.9646 2.86731 33.7699 2.86731ZM34.646 47.1505C34.646 47.6284 34.2478 48.0266 33.8496 48.0266H2.15044C1.67257 48.0266 1.35398 47.6284 1.35398 47.1505V13.3009H34.646V47.1505Z" fill="#18337F"/>
<path d="M9.63731 8.12395C9.63731 6.92926 8.68156 5.97351 7.48687 5.97351C6.29218 5.97351 5.33643 6.92926 5.33643 8.12395C5.33643 9.31864 6.29218 10.2744 7.48687 10.2744C8.60191 10.2744 9.63731 9.31864 9.63731 8.12395ZM6.61076 8.12395C6.61076 7.64608 7.00899 7.32749 7.40722 7.32749C7.8851 7.32749 8.20368 7.72572 8.20368 8.12395C8.20368 8.60183 7.80545 8.92041 7.40722 8.92041C7.00899 8.92041 6.61076 8.60183 6.61076 8.12395Z" fill="#18337F"/>
<path d="M16.6463 8.12395C16.6463 6.92926 15.6906 5.97351 14.4959 5.97351C13.3012 5.97351 12.3455 6.92926 12.3455 8.12395C12.3455 9.31864 13.3012 10.2744 14.4959 10.2744C15.6109 10.2744 16.6463 9.31864 16.6463 8.12395ZM13.6198 8.12395C13.6198 7.64608 14.018 7.32749 14.4163 7.32749C14.8941 7.32749 15.2127 7.72572 15.2127 8.12395C15.2127 8.60183 14.8145 8.92041 14.4163 8.92041C14.018 8.92041 13.6198 8.60183 13.6198 8.12395Z" fill="#18337F"/>
<path d="M23.6551 8.12395C23.6551 6.92926 22.6994 5.97351 21.5047 5.97351C20.31 5.97351 19.3542 6.92926 19.3542 8.12395C19.3542 9.31864 20.31 10.2744 21.5047 10.2744C22.6197 10.2744 23.6551 9.31864 23.6551 8.12395ZM20.6286 8.12395C20.6286 7.64608 21.0268 7.32749 21.425 7.32749C21.9029 7.32749 22.2215 7.72572 22.2215 8.12395C22.2215 8.60183 21.8233 8.92041 21.425 8.92041C21.0268 8.92041 20.6286 8.60183 20.6286 8.12395Z" fill="#18337F"/>
<path d="M30.6639 8.12395C30.6639 6.92926 29.7082 5.97351 28.5135 5.97351C27.3188 5.97351 26.363 6.92926 26.363 8.12395C26.363 9.31864 27.3188 10.2744 28.5135 10.2744C29.6285 10.2744 30.6639 9.31864 30.6639 8.12395ZM27.6374 8.12395C27.6374 7.64608 28.0356 7.32749 28.4338 7.32749C28.9117 7.32749 29.2303 7.72572 29.2303 8.12395C29.2303 8.60183 28.8321 8.92041 28.4338 8.92041C28.0356 8.92041 27.6374 8.60183 27.6374 8.12395Z" fill="#18337F"/>
<path d="M34.6461 43.0088H1.27443C0.876201 43.0088 0.557617 42.6902 0.557617 42.292C0.557617 41.8938 0.876201 41.5752 1.27443 41.5752H34.5665C34.9647 41.5752 35.2833 41.8938 35.2833 42.292C35.2833 42.6902 34.9647 43.0088 34.6461 43.0088Z" fill="#18337F"/>
<path d="M34.6461 17.5221H1.27443C0.876201 17.5221 0.557617 17.2035 0.557617 16.8053C0.557617 16.4071 0.876201 16.0885 1.27443 16.0885H34.5665C34.9647 16.0885 35.2833 16.4071 35.2833 16.8053C35.2833 17.2035 34.9647 17.5221 34.6461 17.5221Z" fill="#18337F"/>
<path d="M7.32759 52.3274H6.1329C5.2568 52.3274 4.61963 51.6106 4.61963 50.8142V48.823C4.61963 48.4248 4.93821 48.1062 5.33644 48.1062H8.2037C8.60193 48.1062 8.92051 48.4248 8.92051 48.823V50.8142C8.84087 51.6903 8.12405 52.3274 7.32759 52.3274ZM5.97361 49.5398V50.8142C5.97361 50.8938 6.05326 50.9735 6.1329 50.9735H7.32759C7.40724 50.9735 7.48689 50.8938 7.48689 50.8142V49.4602H5.97361V49.5398Z" fill="#18337F"/>
<path d="M29.7876 52.3274H28.5929C27.7168 52.3274 27.0796 51.6106 27.0796 50.8142V48.823C27.0796 48.4248 27.3982 48.1062 27.7964 48.1062H30.6637C31.0619 48.1062 31.3805 48.4248 31.3805 48.823V50.8142C31.3008 51.6903 30.6637 52.3274 29.7876 52.3274ZM28.4336 49.5398V50.8142C28.4336 50.8938 28.5132 50.9735 28.5929 50.9735H29.7876C29.8672 50.9735 29.9468 50.8938 29.9468 50.8142V49.4602H28.4336V49.5398Z" fill="#18337F"/>
<path d="M29.1507 21.1858H6.77015C5.73475 21.1858 4.85864 20.3097 4.85864 19.2743V16.8053C4.85864 16.4071 5.17723 16.0885 5.57546 16.0885H30.425C30.8232 16.0885 31.1418 16.4071 31.1418 16.8053V19.2743C31.0622 20.3097 30.1861 21.1858 29.1507 21.1858ZM6.21263 17.5221V19.2743C6.21263 19.5929 6.45156 19.8319 6.77015 19.8319H29.1507C29.4693 19.8319 29.7082 19.5929 29.7082 19.2743V17.5221H6.21263Z" fill="#18337F"/>
<path d="M20.6279 8.12385C20.6279 7.64598 21.0262 7.32739 21.4244 7.32739C21.9023 7.32739 22.2208 7.72562 22.2208 8.12385C22.2208 8.60173 21.8226 8.92031 21.4244 8.92031C21.0262 8.92031 20.6279 8.60173 20.6279 8.12385Z" fill="#9FE8FF"/>
<path d="M6.6106 8.12385C6.6106 7.64598 7.00883 7.32739 7.40706 7.32739C7.88493 7.32739 8.20352 7.72562 8.20352 8.12385C8.20352 8.60173 7.80529 8.92031 7.40706 8.92031C7.00883 8.92031 6.6106 8.60173 6.6106 8.12385Z" fill="#9FE8FF"/>
<path d="M13.6196 8.12385C13.6196 7.64598 14.0179 7.32739 14.4161 7.32739C14.894 7.32739 15.2125 7.72562 15.2125 8.12385C15.2125 8.60173 14.8143 8.92031 14.4161 8.92031C14.0179 8.92031 13.6196 8.60173 13.6196 8.12385Z" fill="#9FE8FF"/>
<path d="M27.6372 8.12385C27.6372 7.64598 28.0354 7.32739 28.4337 7.32739C28.9115 7.32739 29.2301 7.72562 29.2301 8.12385C29.2301 8.60173 28.8319 8.92031 28.4337 8.92031C27.9558 8.92031 27.6372 8.60173 27.6372 8.12385Z" fill="#9FE8FF"/>
<path d="M16.7258 4.22124H6.2922C5.97361 4.22124 5.65503 3.90265 5.65503 3.58407V3.26549C5.65503 1.43363 7.1683 0 8.92052 0H14.0975C15.9294 0 17.363 1.51327 17.363 3.26549V3.58407C17.363 3.90265 17.0444 4.22124 16.7258 4.22124ZM6.92937 2.86726H16.009C15.8497 1.9115 15.0533 1.19469 14.0179 1.19469H8.84087C7.88512 1.19469 7.08866 1.9115 6.92937 2.86726Z" fill="#18337F"/>
<path d="M29.6282 4.22124H19.1945C18.876 4.22124 18.5574 3.90265 18.5574 3.58407V3.26549C18.5574 1.43363 20.0706 0 21.8229 0H26.9999C28.8317 0 30.2653 1.51327 30.2653 3.26549V3.58407C30.2653 3.90265 29.9468 4.22124 29.6282 4.22124ZM19.8317 2.86726H28.9114C28.7521 1.9115 27.9556 1.19469 26.9202 1.19469H21.7432C20.7875 1.19469 19.991 1.9115 19.8317 2.86726Z" fill="#18337F"/>
</svg>
