<svg width="68" height="49" viewBox="0 0 68 49" fill="none" xmlns="http://www.w3.org/2000/svg">
<path d="M54.961 39.8314C53.4495 39.8314 52.2937 38.5867 52.2937 37.1641C52.2937 35.7416 53.5384 34.4968 54.961 34.4968C56.4724 34.4968 57.6283 35.7416 57.6283 37.1641C57.6283 38.5867 56.4724 39.8314 54.961 39.8314Z" fill="#9FE8FF"/>
<path d="M49.6263 9.60219C51.938 14.8478 51.938 20.538 50.7821 23.561C50.3376 24.6279 49.8041 25.2502 49.1818 25.517C46.6923 26.5839 43.7583 23.4721 41.9801 20.538C41.1799 19.1155 39.6685 18.3153 37.9792 18.3153H29.6217C28.0213 18.3153 26.5099 19.2044 25.7097 20.538C23.9315 23.4721 20.9975 26.5839 18.508 25.517C17.8856 25.2502 17.3522 24.539 16.9076 23.561C15.7518 20.627 15.7518 14.8478 18.0635 9.60219C20.1973 4.71217 22.42 2.48943 24.9984 2.48943C25.8875 2.48943 26.6877 2.66725 27.4879 3.02289C28.1102 3.28962 28.6437 3.64525 29.0882 4.26762C29.2661 4.44544 29.4439 4.62326 29.7106 4.62326H37.8903C38.157 4.62326 38.3348 4.53435 38.5126 4.26762C38.8683 3.73416 39.4906 3.28962 40.113 3.02289C43.047 1.86707 46.1588 1.86707 49.6263 9.60219Z" fill="#9FE8FF"/>
<path d="M27.3988 9.69124H25.7095V8.00196C25.7095 7.73523 25.4428 7.46851 25.1761 7.46851H23.2201C22.9533 7.46851 22.6866 7.73523 22.6866 8.00196V9.69124H20.9973C20.7306 9.69124 20.4639 9.95797 20.4639 10.2247V12.1807C20.4639 12.4474 20.7306 12.7142 20.9973 12.7142H22.6866V14.4034C22.6866 14.6702 22.9533 14.9369 23.2201 14.9369H25.0872C25.3539 14.9369 25.6206 14.6702 25.6206 14.4034V12.7142H27.3099C27.5766 12.7142 27.8434 12.4474 27.8434 12.1807V10.2247C27.9323 9.95797 27.6655 9.69124 27.3988 9.69124Z" fill="#18337F"/>
<path d="M36.1119 15.3813H31.5775C31.1329 15.3813 30.8662 15.737 30.8662 16.0926C30.8662 16.5372 31.2218 16.8039 31.5775 16.8039H36.1119C36.5564 16.8039 36.8231 16.4483 36.8231 16.0926C36.9121 15.6481 36.5564 15.3813 36.1119 15.3813Z" fill="#18337F"/>
<path d="M42.5136 10.1356C43.4916 10.1356 44.3807 9.33538 44.3807 8.26847C44.3807 7.29046 43.5805 6.40137 42.5136 6.40137C41.5356 6.40137 40.6465 7.20155 40.6465 8.26847C40.6465 9.33538 41.4467 10.1356 42.5136 10.1356ZM42.5136 7.55719C42.8692 7.55719 43.2249 7.91283 43.2249 8.26847C43.2249 8.6241 42.8692 8.97974 42.5136 8.97974C42.1579 8.97974 41.8023 8.6241 41.8023 8.26847C41.8023 7.91283 42.069 7.55719 42.5136 7.55719Z" fill="#18337F"/>
<path d="M42.5136 12.3584C41.5356 12.3584 40.6465 13.1586 40.6465 14.2255C40.6465 15.2035 41.4467 16.0926 42.5136 16.0926C43.4916 16.0926 44.3807 15.2924 44.3807 14.2255C44.3807 13.1586 43.4916 12.3584 42.5136 12.3584ZM42.5136 14.9368C42.1579 14.9368 41.8023 14.5811 41.8023 14.2255C41.8023 13.8699 42.1579 13.5142 42.5136 13.5142C42.8692 13.5142 43.2249 13.8699 43.2249 14.2255C43.2249 14.5811 42.8692 14.9368 42.5136 14.9368Z" fill="#18337F"/>
<path d="M43.5806 11.2025C43.5806 12.1806 44.3808 13.0696 45.4477 13.0696C46.4257 13.0696 47.3148 12.2695 47.3148 11.2025C47.3148 10.2245 46.5146 9.33545 45.4477 9.33545C44.4697 9.42436 43.5806 10.2245 43.5806 11.2025ZM45.4477 10.4913C45.8033 10.4913 46.1589 10.8469 46.1589 11.2025C46.1589 11.5582 45.8033 11.9138 45.4477 11.9138C45.092 11.9138 44.7364 11.5582 44.7364 11.2025C44.7364 10.8469 45.092 10.4913 45.4477 10.4913Z" fill="#18337F"/>
<path d="M37.7124 11.2025C37.7124 12.1806 38.5126 13.0696 39.5795 13.0696C40.5575 13.0696 41.4466 12.2695 41.4466 11.2025C41.4466 10.2245 40.6464 9.33545 39.5795 9.33545C38.5126 9.33545 37.7124 10.2245 37.7124 11.2025ZM39.5795 10.4913C39.9351 10.4913 40.2908 10.8469 40.2908 11.2025C40.2908 11.5582 39.9351 11.9138 39.5795 11.9138C39.2239 11.9138 38.8682 11.5582 38.8682 11.2025C38.8682 10.8469 39.135 10.4913 39.5795 10.4913Z" fill="#18337F"/>
<path d="M65.63 25.9616H51.0488C51.4934 25.4281 51.849 24.8057 52.2046 24.0945C53.5383 20.8048 53.5383 14.5811 51.0488 8.97985C47.937 1.95601 44.4695 -0.266728 39.6684 1.60037C38.8682 1.8671 38.2459 2.40055 37.6235 3.02292H35.5786V0.800185C35.5786 0.355638 35.2229 0.0889094 34.6895 0C34.156 0 33.6226 0 33.178 0H33.0891C32.9113 0 32.6446 0 32.4667 0.177819C32.2889 0.355638 32.2 0.533457 32.2 0.800185V3.02292H30.1551C29.6216 2.40055 28.9104 1.8671 28.1991 1.60037C23.398 -0.266728 19.9305 1.95601 16.8187 8.97985C14.3292 14.5811 14.3292 20.8048 15.6629 24.0945C15.9296 24.8946 16.3741 25.517 16.8187 25.9616H2.05972C0.992812 25.9616 0.192627 26.8506 0.192627 27.8287V46.2329C0.192627 47.2998 1.08172 48.1 2.05972 48.1H65.5411C66.608 48.1 67.4082 47.2109 67.4082 46.2329V27.9176C67.4971 26.8506 66.608 25.9616 65.63 25.9616ZM33.6226 3.02292V1.51146H34.0671V3.02292H33.6226ZM49.6263 9.60222C51.9379 14.8479 51.9379 20.5381 50.7821 23.561C50.3375 24.6279 49.8041 25.2503 49.1817 25.517C46.6923 26.5839 43.7582 23.4721 41.9801 20.5381C41.1799 19.1155 39.6684 18.3153 37.9791 18.3153H29.6216C28.0213 18.3153 26.5098 19.2044 25.7096 20.5381C23.9314 23.4721 20.9974 26.5839 18.508 25.517C17.8856 25.2503 17.3521 24.539 16.9076 23.561C15.7518 20.627 15.7518 14.8479 18.0634 9.60222C20.1972 4.7122 22.42 2.48946 24.9984 2.48946C25.8875 2.48946 26.6876 2.66728 27.4878 3.02292C28.1102 3.28965 28.6436 3.64529 29.0882 4.26765C29.266 4.44547 29.4438 4.62329 29.7106 4.62329H37.8902C38.157 4.62329 38.3348 4.53438 38.5126 4.26765C38.8682 3.7342 39.4906 3.28965 40.113 3.02292C43.047 1.8671 46.1588 1.8671 49.6263 9.60222ZM26.9544 21.3383C27.4878 20.3603 28.5547 19.8268 29.6216 19.8268H37.9791C39.046 19.8268 40.113 20.4492 40.6464 21.3383C41.7133 23.1165 43.1359 24.8946 44.7362 25.9616H22.8645C24.2871 24.9836 25.7096 23.3832 26.9544 21.3383ZM65.9856 46.3218C65.9856 46.4996 65.8078 46.7664 65.5411 46.7664H2.05972C1.88191 46.7664 1.61518 46.5885 1.61518 46.3218V34.408H41.1799C41.3577 34.408 41.4466 34.4969 41.4466 34.6747V37.0752C41.4466 37.2531 41.3577 37.342 41.1799 37.342H10.8618C10.4172 37.342 10.1505 37.6976 10.1505 38.0532C10.1505 38.4978 10.5061 38.7645 10.8618 38.7645H41.2688C42.2468 38.7645 43.047 37.9643 43.047 36.9863V34.6747C43.047 33.6967 42.2468 32.8965 41.2688 32.8965H1.70409V27.9176C1.70409 27.7397 1.88191 27.473 2.14863 27.473H65.63C65.8078 27.473 66.0745 27.6508 66.0745 27.9176V46.3218H65.9856Z" fill="#18337F"/>
<path d="M54.9607 32.8965C52.6491 32.8965 50.782 34.7636 50.782 37.0752C50.782 39.3869 52.6491 41.254 54.9607 41.254C57.2724 41.254 59.1395 39.3869 59.1395 37.0752C59.1395 34.7636 57.2724 32.8965 54.9607 32.8965ZM54.9607 39.8314C53.4493 39.8314 52.2934 38.5867 52.2934 37.1641C52.2934 35.7416 53.5382 34.4969 54.9607 34.4969C56.4722 34.4969 57.628 35.7416 57.628 37.1641C57.628 38.5867 56.4722 39.8314 54.9607 39.8314Z" fill="#18337F"/>
<path d="M39.5794 10.4915C39.9351 10.4915 40.2907 10.8471 40.2907 11.2027C40.2907 11.5584 39.9351 11.914 39.5794 11.914C39.2238 11.914 38.8682 11.5584 38.8682 11.2027C38.8682 10.8471 39.1349 10.4915 39.5794 10.4915Z" fill="white"/>
<path d="M42.5135 7.55737C42.8692 7.55737 43.2248 7.91301 43.2248 8.26865C43.2248 8.62429 42.8692 8.97992 42.5135 8.97992C42.1579 8.97992 41.8022 8.62429 41.8022 8.26865C41.8022 7.91301 42.069 7.55737 42.5135 7.55737Z" fill="white"/>
<path d="M45.4476 10.4915C45.8032 10.4915 46.1589 10.8471 46.1589 11.2027C46.1589 11.5584 45.8032 11.914 45.4476 11.914C45.092 11.914 44.7363 11.5584 44.7363 11.2027C44.7363 10.8471 45.092 10.4915 45.4476 10.4915Z" fill="white"/>
<path d="M42.5135 13.4253C42.8692 13.4253 43.2248 13.7809 43.2248 14.1366C43.2248 14.4922 42.8692 14.8478 42.5135 14.8478C42.1579 14.8478 41.8022 14.4922 41.8022 14.1366C41.8022 13.7809 42.069 13.4253 42.5135 13.4253Z" fill="white"/>
</svg>
