<svg width="23" height="60" viewBox="0 0 23 60" fill="none" xmlns="http://www.w3.org/2000/svg">
<path d="M21.3176 24.0559H7.09082V58.5388H21.3176V24.0559Z" fill="#9FE8FF"/>
<path d="M21.927 22.7687H6.48083H0.722386C0.383654 22.7687 0.0449219 23.0397 0.0449219 23.4461V59.1485C0.0449219 59.4872 0.315907 59.826 0.722386 59.826H21.9948C22.3335 59.826 22.6722 59.555 22.6722 59.1485V23.3784C22.6045 23.0397 22.2657 22.7687 21.927 22.7687ZM5.80337 43.2958C5.73562 43.2281 5.66787 43.2281 5.66787 43.1603C5.1259 42.7539 4.58393 42.2796 4.17745 41.8054C3.97421 41.5344 3.97421 41.5344 3.97421 41.128V24.0559H5.87111V43.2958H5.80337ZM1.3321 24.0559H2.61929V36.7922V41.128C2.61929 41.7377 2.61929 42.0764 3.16126 42.6861C3.63548 43.2281 4.2452 43.7023 4.78717 44.1765C5.05816 44.3798 5.32914 44.6508 5.53238 44.854C5.60013 44.9218 5.66787 44.9895 5.73562 44.9895V58.5388H1.26436V24.0559H1.3321ZM21.2495 58.471H7.0228V24.0559H21.2495V58.471Z" fill="#18337F"/>
<path d="M19.4881 0.886597H3.09351C1.39985 0.886597 0.0449219 2.24152 0.0449219 3.93518V20.804C0.0449219 21.1428 0.315907 21.4815 0.722386 21.4815H21.9948C22.3335 21.4815 22.6722 21.2105 22.6722 20.804V3.93518C22.6045 2.24152 21.1818 0.886597 19.4881 0.886597ZM3.90647 10.9131C3.90647 9.96461 3.90647 9.69363 4.51618 9.08391L5.80337 7.93222V20.1943H3.90647V11.3873C3.90647 11.2518 3.90647 11.0486 3.90647 10.9131ZM21.2495 20.1943H7.0228V3.6642C7.0228 3.32547 6.75182 2.98674 6.34534 2.98674C6.00661 2.98674 5.66787 3.25772 5.66787 3.6642V6.23856C5.73562 6.30631 5.60013 6.30631 5.53238 6.37406L3.63548 8.06772C2.55154 9.01616 2.55154 9.82912 2.61929 10.8453C2.61929 10.9808 2.61929 11.184 2.61929 11.3195V20.0588H1.3321V3.79969C1.3321 2.85124 2.14506 2.03829 3.09351 2.03829H19.4881C20.4366 2.03829 21.2495 2.85124 21.2495 3.79969V20.1943Z" fill="#18337F"/>
<path d="M12.1047 35.3695H16.3727C17.1857 35.3695 17.7954 34.692 17.7954 33.9468V27.2399C17.7954 26.427 17.1857 25.8173 16.3727 25.8173H12.0369C11.224 25.8173 10.6143 26.4947 10.6143 27.2399V33.9468C10.682 34.7598 11.2917 35.3695 12.1047 35.3695ZM11.9692 27.2399C11.9692 27.1722 12.0369 27.1044 12.1047 27.1044H16.3727C16.4404 27.1044 16.5082 27.1722 16.5082 27.2399V33.9468C16.5082 34.0146 16.4404 34.0823 16.3727 34.0823H12.0369C11.9692 34.0823 11.9014 34.0146 11.9014 33.9468V27.2399H11.9692Z" fill="#18337F"/>
<path d="M21.2497 20.1944H7.02297V3.66424C7.02297 3.32551 6.75199 2.98678 6.34551 2.98678C6.00678 2.98678 5.66805 3.25777 5.66805 3.66424V6.23861C5.73579 6.30635 5.6003 6.30635 5.53255 6.3741L3.63565 8.06776C2.55171 9.01621 2.55171 9.82917 2.61946 10.8454C2.61946 10.9809 2.61946 11.1841 2.61946 11.3196V20.0589H1.33228V3.79974C1.33228 2.85129 2.14523 2.03833 3.09368 2.03833H19.4883C20.4368 2.03833 21.2497 2.85129 21.2497 3.79974V20.1944Z" fill="#9FE8FF"/>
<path d="M11.9684 27.24C11.9684 27.1722 12.0361 27.1045 12.1039 27.1045H16.3719C16.4396 27.1045 16.5074 27.1722 16.5074 27.24V33.9469C16.5074 34.0146 16.4396 34.0824 16.3719 34.0824H12.0361C11.9684 34.0824 11.9006 34.0146 11.9006 33.9469V27.24H11.9684Z" fill="white"/>
</svg>
