<svg width="63" height="49" viewBox="0 0 63 49" fill="none" xmlns="http://www.w3.org/2000/svg">
<path d="M11.416 18.6254C7.0386 18.6254 3.51953 15.1064 3.51953 10.729C3.51953 6.35159 7.0386 2.83252 11.416 2.83252C15.7934 2.83252 19.3124 6.35159 19.3124 10.729C19.3124 15.1064 15.7934 18.6254 11.416 18.6254ZM11.416 4.46331C7.98275 4.46331 5.15032 7.29573 5.15032 10.729C5.15032 14.1622 7.98275 16.9946 11.416 16.9946C14.8492 16.9946 17.6817 14.1622 17.6817 10.729C17.6817 7.29573 14.9351 4.46331 11.416 4.46331Z" fill="#18337F"/>
<path d="M11.4156 4.46313C7.98233 4.46313 5.1499 7.29556 5.1499 10.7288C5.1499 14.162 7.98233 16.9945 11.4156 16.9945C14.8488 16.9945 17.6812 14.162 17.6812 10.7288C17.6812 7.29556 14.9346 4.46313 11.4156 4.46313Z" fill="#9FE8FF"/>
<path d="M52.0137 4.46313C48.5805 4.46313 45.748 7.29556 45.748 10.7288C45.748 14.162 48.5805 16.9945 52.0137 16.9945C55.447 16.9945 58.2794 14.162 58.2794 10.7288C58.2794 7.29556 55.447 4.46313 52.0137 4.46313Z" fill="#9FE8FF"/>
<path d="M31.5001 17.252C30.4701 17.252 29.6118 18.1103 29.6118 19.1402C29.6118 20.1702 30.4701 21.0285 31.5001 21.0285C32.5301 21.0285 33.3884 20.1702 33.3884 19.1402C33.3884 18.1103 32.5301 17.252 31.5001 17.252Z" fill="#9FE8FF"/>
<path d="M45.0612 33.1309H27.4658V40.169H45.0612V33.1309Z" fill="#9FE8FF"/>
<path d="M54.0733 33.4741C52.2709 33.4741 50.8118 34.9332 50.8118 36.7357C50.8118 38.5382 52.2709 39.9973 54.0733 39.9973C55.8758 39.9973 57.3349 38.5382 57.3349 36.7357C57.3349 34.9332 55.79 33.4741 54.0733 33.4741Z" fill="#9FE8FF"/>
<path d="M60.6826 44.6322H2.31744C1.02997 44.6322 0 43.6022 0 42.3147V31.0709C0 29.7834 1.02997 28.7534 2.31744 28.7534H60.6826C61.97 28.7534 63 29.7834 63 31.0709V42.3147C63 43.6022 61.97 44.6322 60.6826 44.6322ZM2.31744 30.3842C1.97411 30.3842 1.63079 30.6417 1.63079 31.0709V42.3147C1.63079 42.658 1.88828 43.0014 2.31744 43.0014H60.6826C61.0259 43.0014 61.3692 42.7439 61.3692 42.3147V31.0709C61.3692 30.7275 61.1117 30.3842 60.6826 30.3842H2.31744Z" fill="#18337F"/>
<path d="M6.35147 41.5423C5.92232 41.5423 5.49316 41.199 5.49316 40.684V32.6159C5.49316 32.1867 5.83649 31.7576 6.35147 31.7576C6.86646 31.7576 7.20979 32.1009 7.20979 32.6159V40.684C7.20979 41.199 6.78063 41.5423 6.35147 41.5423Z" fill="#18337F"/>
<path d="M11.4154 41.5423C10.9863 41.5423 10.5571 41.199 10.5571 40.684V32.6159C10.5571 32.1867 10.9005 31.7576 11.4154 31.7576C11.8446 31.7576 12.2738 32.1009 12.2738 32.6159V40.684C12.2738 41.199 11.9304 41.5423 11.4154 41.5423Z" fill="#18337F"/>
<path d="M16.4794 41.5423C16.0502 41.5423 15.6211 41.199 15.6211 40.684V32.6159C15.6211 32.1867 15.9644 31.7576 16.4794 31.7576C16.9086 31.7576 17.3377 32.1009 17.3377 32.6159V40.684C17.3377 41.199 16.9944 41.5423 16.4794 41.5423Z" fill="#18337F"/>
<path d="M21.5436 41.5423C21.1145 41.5423 20.6853 41.199 20.6853 40.684V32.6159C20.6853 32.1867 21.0286 31.7576 21.5436 31.7576C22.0586 31.7576 22.4019 32.1009 22.4019 32.6159V40.684C22.4019 41.199 22.0586 41.5423 21.5436 41.5423Z" fill="#18337F"/>
<path d="M7.72478 35.4483H4.97818C4.54903 35.4483 4.11987 35.105 4.11987 34.59C4.11987 34.1608 4.4632 33.7317 4.97818 33.7317H7.72478C8.15393 33.7317 8.58309 34.075 8.58309 34.59C8.58309 35.0192 8.23976 35.4483 7.72478 35.4483Z" fill="#18337F"/>
<path d="M12.789 38.4522H10.0424C9.61324 38.4522 9.18408 38.1089 9.18408 37.5939C9.18408 37.0789 9.52741 36.7356 10.0424 36.7356H12.789C13.2181 36.7356 13.6473 37.0789 13.6473 37.5939C13.6473 38.1089 13.304 38.4522 12.789 38.4522Z" fill="#18337F"/>
<path d="M17.9386 36.3067H15.1921C14.7629 36.3067 14.3337 35.9634 14.3337 35.4484C14.3337 34.9334 14.6771 34.5901 15.1921 34.5901H17.9386C18.3678 34.5901 18.797 34.9334 18.797 35.4484C18.797 35.9634 18.3678 36.3067 17.9386 36.3067Z" fill="#18337F"/>
<path d="M23.0029 39.8258H20.2563C19.8271 39.8258 19.3979 39.4824 19.3979 38.9674C19.3979 38.5383 19.7413 38.1091 20.2563 38.1091H23.0029C23.432 38.1091 23.8612 38.4525 23.8612 38.9674C23.7753 39.4824 23.432 39.8258 23.0029 39.8258Z" fill="#18337F"/>
<path d="M45.9196 41.8856H26.6076C26.1784 41.8856 25.7493 41.5422 25.7493 41.0272V32.3583C25.7493 31.9292 26.0926 31.5 26.6076 31.5H45.9196C46.3487 31.5 46.7779 31.8433 46.7779 32.3583V41.0272C46.7779 41.4564 46.3487 41.8856 45.9196 41.8856ZM27.4659 40.2548H45.0613V33.2166H27.4659V40.2548Z" fill="#18337F"/>
<path d="M54.0735 41.5423C51.4128 41.5423 49.1812 39.3965 49.1812 36.6499C49.1812 33.9033 51.3269 31.7576 54.0735 31.7576C56.7343 31.7576 58.9659 33.9033 58.9659 36.6499C58.9659 39.3965 56.7343 41.5423 54.0735 41.5423ZM54.0735 33.4742C52.2711 33.4742 50.8119 34.9333 50.8119 36.7358C50.8119 38.5382 52.2711 39.9973 54.0735 39.9973C55.876 39.9973 57.3351 38.5382 57.3351 36.7358C57.3351 34.9333 55.7901 33.4742 54.0735 33.4742Z" fill="#18337F"/>
<path d="M21.5434 26.0068H1.28727C0.85811 26.0068 0.428955 25.6635 0.428955 25.1485V0.858311C0.428955 0.429155 0.772279 0 1.28727 0H21.5434C21.9725 0 22.4017 0.343324 22.4017 0.858311V25.2343C22.4017 25.5777 22.0584 26.0068 21.5434 26.0068ZM2.14558 24.376H20.7709V1.63079H2.14558V24.376Z" fill="#18337F"/>
<path d="M11.4162 14.3338C9.44207 14.3338 7.81128 12.703 7.81128 10.7289C7.81128 8.75481 9.44207 7.12402 11.4162 7.12402C13.3903 7.12402 15.0211 8.75481 15.0211 10.7289C15.0211 12.703 13.3903 14.3338 11.4162 14.3338ZM11.4162 8.75481C10.3004 8.75481 9.44207 9.61312 9.44207 10.7289C9.44207 11.8447 10.3004 12.703 11.4162 12.703C12.532 12.703 13.3903 11.8447 13.3903 10.7289C13.3903 9.61312 12.532 8.75481 11.4162 8.75481Z" fill="#18337F"/>
<path d="M11.416 18.6254C7.0386 18.6254 3.51953 15.1064 3.51953 10.729C3.51953 6.35159 7.0386 2.83252 11.416 2.83252C15.7934 2.83252 19.3124 6.35159 19.3124 10.729C19.3124 15.1064 15.7934 18.6254 11.416 18.6254ZM11.416 4.46331C7.98275 4.46331 5.15032 7.29573 5.15032 10.729C5.15032 14.1622 7.98275 16.9946 11.416 16.9946C14.8492 16.9946 17.6817 14.1622 17.6817 10.729C17.6817 7.29573 14.9351 4.46331 11.416 4.46331Z" fill="#18337F"/>
<path d="M16.0502 22.4876H6.78043C6.35127 22.4876 5.92212 22.1443 5.92212 21.6293C5.92212 21.2002 6.26544 20.771 6.78043 20.771H16.0502C16.4793 20.771 16.9085 21.1143 16.9085 21.6293C16.9085 22.1443 16.5652 22.4876 16.0502 22.4876Z" fill="#18337F"/>
<path d="M62.1418 26.0068H41.8857C41.4565 26.0068 41.0273 25.6635 41.0273 25.1485V0.858311C41.0273 0.429155 41.3707 0 41.8857 0H62.1418C62.5709 0 63.0001 0.343324 63.0001 0.858311V25.2343C63.0001 25.5777 62.5709 26.0068 62.1418 26.0068ZM42.6581 24.376H61.2835V1.63079H42.6581V24.376Z" fill="#18337F"/>
<path d="M52.0138 14.3338C50.0397 14.3338 48.4089 12.703 48.4089 10.7289C48.4089 8.75481 50.0397 7.12402 52.0138 7.12402C53.988 7.12402 55.6187 8.75481 55.6187 10.7289C55.6187 12.703 53.988 14.3338 52.0138 14.3338ZM52.0138 8.75481C50.898 8.75481 50.0397 9.61312 50.0397 10.7289C50.0397 11.8447 50.898 12.703 52.0138 12.703C53.1296 12.703 53.988 11.8447 53.988 10.7289C53.988 9.61312 53.1296 8.75481 52.0138 8.75481Z" fill="#18337F"/>
<path d="M52.0139 18.6254C47.6365 18.6254 44.1174 15.1064 44.1174 10.729C44.1174 6.35159 47.6365 2.83252 52.0139 2.83252C56.3913 2.83252 59.9103 6.35159 59.9103 10.729C59.9103 15.1064 56.3913 18.6254 52.0139 18.6254ZM52.0139 4.46331C48.5807 4.46331 45.7482 7.29573 45.7482 10.729C45.7482 14.1622 48.5807 16.9946 52.0139 16.9946C55.4471 16.9946 58.2796 14.1622 58.2796 10.729C58.2796 7.29573 55.4471 4.46331 52.0139 4.46331Z" fill="#18337F"/>
<path d="M56.6483 22.4876H47.3786C46.9494 22.4876 46.5203 22.1443 46.5203 21.6293C46.5203 21.2002 46.8636 20.771 47.3786 20.771H56.6483C57.0775 20.771 57.5066 21.1143 57.5066 21.6293C57.4208 22.1443 57.0775 22.4876 56.6483 22.4876Z" fill="#18337F"/>
<path d="M37.508 26.0069H25.4916C25.0625 26.0069 24.6333 25.6636 24.6333 25.1486V13.1322C24.6333 12.7031 24.9766 12.2739 25.4916 12.2739H37.508C37.9371 12.2739 38.3663 12.6172 38.3663 13.1322V25.1486C38.3663 25.5777 37.9371 26.0069 37.508 26.0069ZM26.2641 24.3761H36.6496V13.9047H26.2641V24.3761Z" fill="#18337F"/>
<path d="M31.5 22.6595C29.5259 22.6595 27.981 21.1145 27.981 19.1404C27.981 17.1663 29.5259 15.6213 31.5 15.6213C33.4741 15.6213 35.0191 17.1663 35.0191 19.1404C35.0191 21.1145 33.3883 22.6595 31.5 22.6595ZM31.5 17.2521C30.4701 17.2521 29.6117 18.1104 29.6117 19.1404C29.6117 20.1704 30.4701 21.0287 31.5 21.0287C32.53 21.0287 33.3883 20.1704 33.3883 19.1404C33.3883 18.1104 32.53 17.2521 31.5 17.2521Z" fill="#18337F"/>
<path d="M11.2436 48.1511H5.40714C4.97798 48.1511 4.54883 47.8078 4.54883 47.2928V43.8595C4.54883 43.4304 4.89215 43.0012 5.40714 43.0012H11.3295C11.7586 43.0012 12.1878 43.3445 12.1878 43.8595V47.2928C12.102 47.8078 11.7586 48.1511 11.2436 48.1511ZM6.17962 46.5203H10.4712V44.7178H6.17962V46.5203Z" fill="#18337F"/>
<path d="M57.5924 48.1511H51.6701C51.2409 48.1511 50.8118 47.8078 50.8118 47.2928V43.8595C50.8118 43.4304 51.1551 43.0012 51.6701 43.0012H57.5924C58.0216 43.0012 58.4507 43.3445 58.4507 43.8595V47.2928C58.3649 47.8078 58.0216 48.1511 57.5924 48.1511ZM52.5284 46.5203H56.8199V44.7178H52.5284V46.5203Z" fill="#18337F"/>
<path d="M56.8199 44.718H52.5283V46.5205H56.8199V44.718Z" fill="#9FE8FF"/>
<path d="M10.4712 44.718H6.17969V46.5205H10.4712V44.718Z" fill="#9FE8FF"/>
<path d="M41.3705 37.0789H31.1567C30.7275 37.0789 30.2983 36.7356 30.2983 36.2206C30.2983 35.7056 30.6417 35.3623 31.1567 35.3623H41.3705C41.7997 35.3623 42.2289 35.7056 42.2289 36.2206C42.2289 36.7356 41.8855 37.0789 41.3705 37.0789Z" fill="#18337F"/>
</svg>
