<svg width="56" height="42" viewBox="0 0 56 42" fill="none" xmlns="http://www.w3.org/2000/svg">
<path d="M9.87793 7.87494C9.87793 4.32347 12.8335 1.38965 16.4113 1.38965H43.9446C47.5224 1.38965 50.4779 4.32347 50.4779 7.87494V13.2794H49.5446C47.8335 13.2794 46.4335 14.6691 46.4335 16.3676V18.1433C45.5001 17.1396 44.1779 16.5992 42.7779 16.5992H17.5779C16.1779 16.5992 14.8557 17.1396 13.9224 18.1433V16.3676C13.9224 14.6691 12.5224 13.2794 10.8113 13.2794H9.87793V7.87494Z" fill="#9FE8FF"/>
<path d="M52.889 13.2794H51.9557V7.875C51.9557 3.55147 48.3779 0 44.0223 0H16.4112C12.0557 0 8.4779 3.55147 8.4779 7.875V13.2794H7.62234C5.91123 13.2794 4.51123 14.6691 4.51123 16.3676V25.5551C4.51123 28.5662 7.00012 31.0368 10.0335 31.0368H11.5112V35.4375C11.5112 35.8235 11.8223 36.1324 12.2112 36.1324H16.1779C16.5668 36.1324 16.8779 35.8235 16.8779 35.4375V31.0368H43.6334V35.4375C43.6334 35.8235 43.9446 36.1324 44.3335 36.1324H48.3001C48.689 36.1324 49.0001 35.8235 49.0001 35.4375V31.0368H50.4779C53.5112 31.0368 56.0001 28.5662 56.0001 25.5551V16.3676C56.0001 14.6691 54.6001 13.2794 52.889 13.2794ZM9.8779 7.875C9.8779 4.32353 12.8335 1.38971 16.4112 1.38971H43.9446C47.5223 1.38971 50.4779 4.32353 50.4779 7.875V13.2794H49.5446C47.8335 13.2794 46.4335 14.6691 46.4335 16.3676V18.1434C45.5001 17.1397 44.1779 16.5993 42.7779 16.5993H17.5779C16.1779 16.5993 14.8557 17.1397 13.9223 18.1434V16.3676C13.9223 14.6691 12.5223 13.2794 10.8112 13.2794H9.8779V7.875ZM13.9223 21.6176C13.9223 19.6103 15.5557 17.989 17.5779 17.989H42.8557C44.8779 17.989 46.5112 19.6103 46.5112 21.6176H13.9223ZM15.4001 34.7426H12.8335V31.0368H15.4001V34.7426ZM47.6001 34.7426H45.0335V31.0368H47.6001V34.7426ZM54.6001 25.5551C54.6001 27.7941 52.7335 29.6471 50.4779 29.6471H10.0335C7.7779 29.6471 5.91123 27.7941 5.91123 25.5551V16.3676C5.91123 15.4412 6.68901 14.6691 7.62234 14.6691H10.8112C11.7446 14.6691 12.5223 15.4412 12.5223 16.3676V22.3897C12.5223 22.7757 12.8335 23.0846 13.2223 23.0846H47.2112C47.6001 23.0846 47.9112 22.7757 47.9112 22.3897V16.3676C47.9112 15.4412 48.689 14.6691 49.6223 14.6691H52.889C53.8223 14.6691 54.6001 15.4412 54.6001 16.3676V25.5551Z" fill="#18337F"/>
<path d="M12.4445 8.56982C12.8334 8.56982 13.1445 8.26099 13.1445 7.87496C13.1445 6.02202 14.6223 4.55511 16.489 4.55511H44.0223C45.889 4.55511 47.3668 6.02202 47.3668 7.87496C47.3668 8.26099 47.6779 8.56982 48.0668 8.56982C48.4556 8.56982 48.7668 8.26099 48.7668 7.87496C48.7668 5.24996 46.6668 3.16541 44.0223 3.16541H16.4112C13.7667 3.16541 11.6667 5.24996 11.6667 7.87496C11.7445 8.26099 12.0556 8.56982 12.4445 8.56982Z" fill="#18337F"/>
</svg>
