<svg width="43" height="51" viewBox="0 0 43 51" fill="none" xmlns="http://www.w3.org/2000/svg">
<path d="M38.4077 0H25.2H23.3363H3.80836C1.70161 0 0 1.69721 0 3.79852V46.6329C0 48.7343 1.70161 50.4315 3.80836 50.4315H7.77878H21.2296H25.2C25.281 50.4315 25.281 50.4315 25.3621 50.4315H38.4077C40.4334 50.4315 42.135 48.7343 42.135 46.7138V3.7177C42.135 1.69721 40.4334 0 38.4077 0ZM1.45852 46.6329V3.79852C1.45852 2.50541 2.5119 1.45475 3.80836 1.45475H25.2C26.4965 1.45475 27.5498 2.50541 27.5498 3.79852V46.6329C27.5498 47.9261 26.4965 48.9767 25.2 48.9767H23.5794C23.7415 48.5726 23.9035 48.1685 23.9035 47.7644C23.9035 46.3097 22.6881 45.0974 21.2296 45.0974H7.77878C6.32026 45.0974 5.10482 46.3097 5.10482 47.7644C5.10482 48.1685 5.18585 48.6534 5.42894 48.9767H3.80836C2.5119 48.9767 1.45852 47.9261 1.45852 46.6329ZM7.77878 48.9767C7.13055 48.9767 6.56334 48.411 6.56334 47.7644C6.56334 47.1179 7.13055 46.5521 7.77878 46.5521H21.2296C21.8778 46.5521 22.445 47.1179 22.445 47.7644C22.445 48.411 21.8778 48.9767 21.2296 48.9767H7.77878ZM40.6765 46.7946C40.6765 48.0069 39.7042 48.9767 38.4887 48.9767H28.2791C28.7653 48.3302 29.0894 47.522 29.0894 46.6329V41.5413H40.6765V46.7946ZM40.6765 40.0866H29.0894V7.35459H40.6765V40.0866ZM40.6765 5.89984H29.0894V4.44508H30.5479C30.9531 4.44508 31.2772 4.1218 31.2772 3.7177C31.2772 3.31361 30.9531 2.99033 30.5479 2.99033H28.9273C28.7653 2.42459 28.5222 1.93967 28.1981 1.53557H38.4077C39.6231 1.53557 40.5955 2.50541 40.5955 3.7177V5.89984H40.6765Z" fill="#18337F"/>
<path d="M10.2908 15.3557C10.2908 17.6995 12.2355 19.6391 14.5853 19.6391C16.9351 19.6391 18.8798 17.6995 18.8798 15.3557C18.8798 13.0119 16.9351 11.0723 14.5853 11.0723C12.2355 11.0723 10.2908 13.0119 10.2908 15.3557ZM14.5043 12.527C16.0438 12.527 17.3403 13.8201 17.3403 15.3557C17.3403 16.8913 16.0438 18.1844 14.5043 18.1844C12.9647 18.1844 11.6683 16.8913 11.6683 15.3557C11.6683 13.8201 12.9647 12.527 14.5043 12.527Z" fill="#18337F"/>
<path d="M11.9112 8.24375C13.3697 8.24375 14.5041 7.11227 14.5041 5.65752C14.5041 4.20276 13.3697 3.07129 11.9112 3.07129H5.50992C4.0514 3.07129 2.91699 4.20276 2.91699 5.65752C2.91699 7.11227 4.0514 8.24375 5.50992 8.24375H11.9112ZM4.45654 5.65752C4.45654 5.01096 4.94271 4.52604 5.59095 4.52604H11.9922C12.6405 4.52604 13.1266 5.01096 13.1266 5.65752C13.1266 6.30408 12.6405 6.78899 11.9922 6.78899H5.59095C4.94271 6.78899 4.45654 6.30408 4.45654 5.65752Z" fill="#18337F"/>
<path d="M14.504 12.5271C16.0435 12.5271 17.34 13.8202 17.34 15.3558C17.34 16.8914 16.0435 18.1845 14.504 18.1845C12.9644 18.1845 11.668 16.8914 11.668 15.3558C11.668 13.8202 12.9644 12.5271 14.504 12.5271Z" fill="#9FE8FF"/>
<path d="M4.45654 5.65735C4.45654 5.0108 4.94272 4.52588 5.59095 4.52588H11.9922C12.6405 4.52588 13.1266 5.0108 13.1266 5.65735C13.1266 6.30391 12.6405 6.78883 11.9922 6.78883H5.59095C4.94272 6.78883 4.45654 6.30391 4.45654 5.65735Z" fill="#9FE8FF"/>
<path d="M7.77891 48.9768C7.13068 48.9768 6.56348 48.4111 6.56348 47.7645C6.56348 47.118 7.13068 46.5522 7.77891 46.5522H21.2297C21.8779 46.5522 22.4451 47.118 22.4451 47.7645C22.4451 48.4111 21.8779 48.9768 21.2297 48.9768H7.77891Z" fill="#9FE8FF"/>
<path d="M40.6765 7.35449H29.0894V40.0865H40.6765V7.35449Z" fill="#9FE8FF"/>
</svg>
