<svg width="50" height="53" viewBox="0 0 50 53" fill="none" xmlns="http://www.w3.org/2000/svg">
<g clip-path="url(#clip0)">
<path d="M41.7255 51.0266C37.9066 51.0266 34.7241 47.9255 34.7241 44.0492C34.7241 40.1728 37.8359 37.0718 41.7255 37.0718C45.6152 37.0718 48.727 40.1728 48.727 44.0492C48.727 47.9255 45.6152 51.0266 41.7255 51.0266Z" fill="#9FE8FF"/>
<path d="M41.7256 40.5957C39.8161 40.5957 38.2603 42.1462 38.2603 44.0492C38.2603 45.9521 39.8161 47.5026 41.7256 47.5026C43.6351 47.5026 45.1909 45.9521 45.1909 44.0492C45.1909 42.1462 43.6351 40.5957 41.7256 40.5957ZM41.7256 46.234C40.5233 46.234 39.5332 45.2473 39.5332 44.0492C39.5332 42.851 40.5233 41.8643 41.7256 41.8643C42.9279 41.8643 43.918 42.851 43.918 44.0492C43.918 45.2473 42.9279 46.234 41.7256 46.234Z" fill="#18337F"/>
<path d="M42.3621 35.8737V24.9495C42.3621 23.1875 41.372 21.5665 39.8869 20.7912V17.0559C39.8869 16.7035 39.6747 16.3511 39.3211 16.2101V5.6383C39.3211 2.46676 36.7751 0 33.6634 0C31.1881 0 28.9958 1.62101 28.2885 3.87633L10.4668 43.7673H9.83027C8.98161 43.7673 8.34512 44.4721 8.34512 45.2473V46.516H4.66761C2.12164 46.516 0 48.6303 0 51.1676C0 51.7314 0.424328 52.1543 0.990099 52.1543H21.7822C22.3479 52.1543 22.7723 51.7314 22.7723 51.1676C22.7723 48.5598 20.6506 46.516 18.1047 46.516H16.9731V45.2473C16.9731 44.4016 16.2659 43.7673 15.488 43.7673H15.4173L32.6733 5.14495C32.8854 4.79255 33.239 4.51064 33.7341 4.51064C34.3706 4.51064 34.8656 5.07447 34.8656 5.70878V16.2101C34.512 16.3511 34.2999 16.7035 34.2999 17.0559V20.5798C31.6832 21.2141 29.2786 22.6941 27.5106 24.738C25.1061 27.4867 23.6209 30.8697 23.1966 34.4641L21.7115 42.4987C21.2164 45.1064 21.9236 47.7846 23.6209 49.758C25.389 51.8723 28.0057 53.0705 30.7638 53.0705H38.1188C39.0382 53.0705 39.8869 52.7886 40.5941 52.2952C40.9477 52.3657 41.372 52.3657 41.7963 52.3657C46.3225 52.3657 50.0707 48.7008 50.0707 44.1197C50 39.75 46.6054 36.1556 42.3621 35.8737ZM21.4993 50.8856H1.27298C1.41443 49.1237 2.89958 47.7846 4.66761 47.7846H18.0339C19.8727 47.7846 21.3579 49.1237 21.4993 50.8856ZM29.4908 4.36968C30.0566 2.60771 31.7539 1.26862 33.7341 1.26862C36.1386 1.26862 38.1188 3.17154 38.1895 5.56782V16.0691H36.2801V5.70878C36.2801 4.36968 35.1485 3.24202 33.8048 3.24202C32.8147 3.24202 31.9661 3.80585 31.6124 4.6516V4.72207C31.6124 4.79255 31.5417 4.79255 31.5417 4.86303L14.0028 43.7673H11.8812L29.4908 4.36968ZM15.7001 45.2473V46.375H9.61811V45.2473C9.61811 45.1064 9.75955 45.0359 9.83027 45.0359H15.488C15.6294 45.0359 15.7001 45.1769 15.7001 45.2473ZM35.5728 17.3378H38.6139V20.2979C38.2603 20.2274 37.9067 20.1569 37.4823 20.1569C36.8458 20.1569 36.2093 20.2274 35.5021 20.2979V17.3378H35.5728ZM28.43 25.5133C29.9859 23.7513 32.0368 22.4827 34.2999 21.8484V32.3497C34.2999 32.984 33.8048 33.5479 33.0976 33.5479H24.611C25.1768 30.5878 26.4498 27.8391 28.43 25.5133ZM38.1188 51.7314H30.6931C28.2885 51.7314 26.0255 50.6742 24.5403 48.9122C23.0552 47.1503 22.4894 44.8949 22.9137 42.6396L24.3989 34.8165H33.0976C34.4413 34.8165 35.5728 33.6888 35.5728 32.3497V21.7074H38.8968C40.1697 22.2713 41.0891 23.5399 41.0891 25.0199V35.9441C36.8458 36.2965 33.4512 39.8205 33.4512 44.1197C33.4512 47.5731 35.5728 50.5332 38.6139 51.7314C38.4724 51.7314 38.2603 51.7314 38.1188 51.7314ZM41.7256 51.0266C37.9067 51.0266 34.7242 47.9255 34.7242 44.0492C34.7242 40.1729 37.8359 37.0718 41.7256 37.0718C45.6153 37.0718 48.727 40.1729 48.727 44.0492C48.727 47.9255 45.6153 51.0266 41.7256 51.0266Z" fill="#18337F"/>
<path d="M28.43 25.5133C29.9859 23.7513 32.0368 22.4827 34.2999 21.8484V32.3497C34.2999 32.984 33.8049 33.5479 33.0976 33.5479H24.6111C25.1769 30.5878 26.4498 27.8391 28.43 25.5133Z" fill="#9FE8FF"/>
<path d="M41.7256 46.2341C40.5233 46.2341 39.5332 45.2474 39.5332 44.0492C39.5332 42.8511 40.5233 41.8644 41.7256 41.8644C42.9278 41.8644 43.9179 42.8511 43.9179 44.0492C43.9179 45.2474 42.9278 46.2341 41.7256 46.2341Z" fill="white"/>
<path d="M29.4907 4.36974C30.0565 2.60777 31.7538 1.26868 33.734 1.26868C36.1385 1.26868 38.1187 3.1716 38.1894 5.56788V16.0692H36.28V5.70884C36.28 4.36974 35.1484 3.24208 33.8047 3.24208C32.8146 3.24208 31.966 3.80591 31.6124 4.65166V4.72213C31.6124 4.79261 31.5416 4.79261 31.5416 4.86309L14.0027 43.7673H11.8811L29.4907 4.36974Z" fill="#9FE8FF"/>
</g>
<defs>
<clipPath id="clip0">
<rect width="50" height="53" fill="white"/>
</clipPath>
</defs>
</svg>
