<svg width="41" height="54" viewBox="0 0 41 54" fill="none" xmlns="http://www.w3.org/2000/svg">
<path d="M37.1471 6.7041H4.50708V46.3394H37.1471V6.7041Z" fill="#9FE8FF"/>
<path d="M38.0195 53.7065H2.9078C1.30851 53.7065 0 52.3805 0 50.7597V2.94686C0 1.32609 1.30851 0 2.9078 0H38.0922C39.6915 0 41 1.32609 41 2.94686V50.7597C40.9273 52.3805 39.6188 53.7065 38.0195 53.7065ZM2.9078 1.5471C2.18085 1.5471 1.59929 2.13647 1.59929 2.87319V50.686C1.59929 51.4227 2.18085 52.0121 2.9078 52.0121H38.0922C38.8191 52.0121 39.4007 51.4227 39.4007 50.686V2.94686C39.4007 2.21015 38.8191 1.62077 38.0922 1.62077H2.9078V1.5471Z" fill="#18337F"/>
<path d="M38.0195 53.7065H2.9078C1.30851 53.7065 0 52.3805 0 50.7597V2.94686C0 1.32609 1.30851 0 2.9078 0H38.0922C39.6915 0 41 1.32609 41 2.94686V50.7597C40.9273 52.3805 39.6188 53.7065 38.0195 53.7065ZM2.9078 1.5471C2.18085 1.5471 1.59929 2.13647 1.59929 2.87319V50.686C1.59929 51.4227 2.18085 52.0121 2.9078 52.0121H38.0922C38.8191 52.0121 39.4007 51.4227 39.4007 50.686V2.94686C39.4007 2.21015 38.8191 1.62077 38.0922 1.62077H2.9078V1.5471Z" fill="#18337F"/>
<path d="M36.42 47.1498H4.50692C4.07075 47.1498 3.70728 46.7814 3.70728 46.3394V7.51449C3.70728 7.07246 4.07075 6.7041 4.50692 6.7041H36.42C36.8562 6.7041 37.2197 7.07246 37.2197 7.51449V46.413C37.147 46.7814 36.8562 47.1498 36.42 47.1498ZM5.30656 45.6027H35.6204V8.2512H5.30656V45.6027Z" fill="#18337F"/>
<path d="M20.4272 50.9071C21.1498 50.9071 21.7357 50.3134 21.7357 49.581C21.7357 48.8486 21.1498 48.2549 20.4272 48.2549C19.7045 48.2549 19.1187 48.8486 19.1187 49.581C19.1187 50.3134 19.7045 50.9071 20.4272 50.9071Z" fill="#18337F"/>
<path d="M22.5353 4.93583H18.319C18.0282 4.93583 17.8828 4.71482 17.8828 4.4938V3.90443C17.8828 3.60975 18.1009 3.4624 18.319 3.4624H22.5353C22.8261 3.4624 22.9715 3.68342 22.9715 3.90443V4.4938C23.0442 4.71482 22.8261 4.93583 22.5353 4.93583Z" fill="#18337F"/>
</svg>
