<svg width="50" height="42" viewBox="0 0 50 42" fill="none" xmlns="http://www.w3.org/2000/svg">
<path d="M3.66133 1.59193C2.46737 1.59193 1.51221 2.54709 1.51221 3.74105V31.8388C1.51221 33.0328 2.46737 33.9879 3.66133 33.9879H45.6886C46.8826 33.9879 47.8377 33.0328 47.8377 31.8388V3.66145C47.8377 2.46749 46.8826 1.51233 45.6886 1.51233H3.66133V1.59193Z" fill="#9FE8FF"/>
<path d="M15.2032 13.4519C14.7256 13.4519 14.3276 13.8499 14.3276 14.3275V16.8746H10.9049V14.3275C10.9049 13.8499 10.507 13.4519 10.0294 13.4519C9.55179 13.4519 9.15381 13.8499 9.15381 14.3275V21.1728C9.15381 21.6504 9.55179 22.0484 10.0294 22.0484C10.507 22.0484 10.9049 21.6504 10.9049 21.1728V18.6257H14.3276V21.1728C14.3276 21.6504 14.7256 22.0484 15.2032 22.0484C15.6808 22.0484 16.0788 21.6504 16.0788 21.1728V14.3275C16.0788 13.8499 15.6808 13.4519 15.2032 13.4519Z" fill="#18337F"/>
<path d="M22.0485 13.4519H18.6258C18.1482 13.4519 17.7502 13.8499 17.7502 14.3275V21.1728C17.7502 21.6504 18.1482 22.0484 18.6258 22.0484H22.0485C23.4812 22.0484 24.5956 20.8544 24.5956 19.5013V16.0786C24.6752 14.5663 23.4812 13.4519 22.0485 13.4519ZM22.9241 19.4217C22.9241 19.8993 22.5261 20.2973 22.0485 20.2973H19.5014V15.1234H22.0485C22.5261 15.1234 22.9241 15.5214 22.9241 15.999V19.4217Z" fill="#18337F"/>
<path d="M31.5206 13.4519H26.3468C25.8692 13.4519 25.4712 13.8499 25.4712 14.3275C25.4712 14.8051 25.8692 15.1234 26.3468 15.1234H28.0979V21.1728C28.0979 21.6504 28.4959 22.0484 28.9735 22.0484C29.451 22.0484 29.849 21.6504 29.849 21.1728V15.1234H31.6002C32.0778 15.1234 32.4757 14.7255 32.4757 14.2479C32.4757 13.7703 31.9982 13.4519 31.5206 13.4519Z" fill="#18337F"/>
<path d="M39.5598 13.4519C39.0822 13.2927 38.6046 13.5315 38.4454 13.9295L36.6943 18.6257L34.9431 13.9295C34.7839 13.4519 34.3064 13.2927 33.8288 13.4519C33.3512 13.6111 33.192 14.0887 33.3512 14.5663L35.8983 21.4116C36.0575 21.73 36.3759 21.9688 36.6943 21.9688C37.0127 21.9688 37.4107 21.73 37.4902 21.4116L40.0374 14.5663C40.1966 14.1683 39.9578 13.6907 39.5598 13.4519Z" fill="#18337F"/>
<path d="M45.6091 35.4207H3.66147C1.67154 35.4207 0 33.8288 0 31.7592V3.66147C0 1.67154 1.59194 0 3.66147 0H45.6887C47.6787 0 49.3502 1.59194 49.3502 3.66147V31.7592C49.2706 33.7492 47.6787 35.4207 45.6091 35.4207ZM3.66147 1.59194C2.46751 1.59194 1.51234 2.54711 1.51234 3.74106V31.8388C1.51234 33.0328 2.46751 33.988 3.66147 33.988H45.6887C46.8827 33.988 47.8379 33.0328 47.8379 31.8388V3.66147C47.8379 2.46751 46.8827 1.51234 45.6887 1.51234H3.66147V1.59194Z" fill="#18337F"/>
<path d="M21.651 39.2413C21.253 39.2413 20.855 38.9229 20.855 38.4454V34.6247C20.855 34.2267 21.1734 33.8287 21.651 33.8287C22.0489 33.8287 22.4469 34.1471 22.4469 34.6247V38.4454C22.4469 38.9229 22.0489 39.2413 21.651 39.2413Z" fill="#18337F"/>
<path d="M27.6207 39.2413C27.2227 39.2413 26.8247 38.9229 26.8247 38.4454V34.6247C26.8247 34.2267 27.1431 33.8287 27.6207 33.8287C28.0983 33.8287 28.4166 34.1471 28.4166 34.6247V38.4454C28.4166 38.9229 28.0187 39.2413 27.6207 39.2413Z" fill="#18337F"/>
<path d="M42.3459 41.5497H42.2663L27.6204 39.2413H21.7302L7.08438 41.5497C6.68639 41.6293 6.28841 41.3109 6.20881 40.9129C6.12921 40.5149 6.4476 40.1169 6.84559 40.0373L21.5711 37.729H21.6507H27.6204H27.7L42.4255 40.0373C42.8235 40.1169 43.1419 40.5149 43.0623 40.9129C43.0623 41.3109 42.6643 41.5497 42.3459 41.5497Z" fill="#18337F"/>
<path d="M27.1426 31.9185H22.128C21.8892 31.9185 21.6504 31.6797 21.6504 31.4409V30.9633C21.6504 30.7245 21.8892 30.4857 22.128 30.4857H27.1426C27.3814 30.4857 27.6202 30.7245 27.6202 30.9633V31.4409C27.6202 31.6797 27.3814 31.9185 27.1426 31.9185Z" fill="#18337F"/>
</svg>
